<svg xmlns="http://www.w3.org/2000/svg" viewBox="0 0 45 45">
  <g fill="#3d2b1f" stroke="#5c3d2e" stroke-width="1.5" stroke-linecap="round" stroke-linejoin="round">
    <!-- Base -->
    <path d="M11 39c0 0 2.5-1 11.5-1s11.5 1 11.5 1v-2c0 0-2.5-1-11.5-1s-11.5 1-11.5 1v2z"/>
    <path d="M13 36c0 0 2.5-1.5 9.5-1.5s9.5 1.5 9.5 1.5v-1.5c0 0-2.5-1.5-9.5-1.5s-9.5 1.5-9.5 1.5v1.5z"/>
    <!-- Decorated collar ring -->
    <ellipse cx="22.5" cy="32.5" rx="8" ry="1.8"/>
    <circle cx="18" cy="32.5" r="0.6" fill="#8b6914" stroke="none"/>
    <circle cx="22.5" cy="31.8" r="0.6" fill="#8b6914" stroke="none"/>
    <circle cx="27" cy="32.5" r="0.6" fill="#8b6914" stroke="none"/>
    <!-- Body -->
    <path d="M17.5 32.5c0 0-1.5-3.5-0.5-7c1-3.5 2.5-5.5 2.5-5.5"/>
    <path d="M27.5 32.5c0 0 1.5-3.5 0.5-7c-1-3.5-2.5-5.5-2.5-5.5"/>
    <!-- Rounded head -->
    <circle cx="22.5" cy="16" r="5"/>
    <!-- Head decoration - small cross -->
    <path d="M22.5 12.5v2.5" fill="none" stroke-width="0.8" stroke="#8b6914"/>
    <path d="M21.2 13.8h2.6" fill="none" stroke-width="0.8" stroke="#8b6914"/>
    <!-- Collar detail -->
    <path d="M19.5 20c0 0 1.5 0.8 3 0.8s3-0.8 3-0.8" fill="none" stroke-width="0.8" stroke="#8b6914"/>
    <!-- Body center line decoration -->
    <path d="M20.5 25c0 0 1-0.5 2-0.5s2 0.5 2 0.5" fill="none" stroke-width="0.7" stroke="#8b6914"/>
    <path d="M19.5 28c0 0 1.5-0.5 3-0.5s3 0.5 3 0.5" fill="none" stroke-width="0.7" stroke="#8b6914"/>
  </g>
</svg>
