<svg xmlns="http://www.w3.org/2000/svg" viewBox="0 0 45 45">
  <g fill="#3d2b1f" stroke="#5c3d2e" stroke-width="1.5" stroke-linecap="round" stroke-linejoin="round">
    <!-- Base -->
    <path d="M10 39c0 0 2.5-1 12.5-1s12.5 1 12.5 1v-2c0 0-2.5-1-12.5-1s-12.5 1-12.5 1v2z"/>
    <path d="M11 36c0 0 3-1.5 11.5-1.5s11.5 1.5 11.5 1.5v-2c0 0-3-1.5-11.5-1.5s-11.5 1.5-11.5 1.5v2z"/>
    <!-- Tower body -->
    <path d="M15 33v-14h15v14"/>
    <!-- Crenellations -->
    <path d="M15 19v-4h3v2h2v-2h2v2h2v-2h2v2h2v-2h3v4"/>
    <!-- Arched window -->
    <path d="M20 26a2.5 2.5 0 0 1 5 0v3h-5z" fill="#8b6914"/>
    <!-- Window arch detail -->
    <path d="M20.5 26a2 2 0 0 1 4 0" fill="none" stroke-width="0.7" stroke="#8b6914"/>
    <!-- Horizontal stone lines -->
    <path d="M15 22h15" fill="none" stroke-width="0.7"/>
    <path d="M15 30h15" fill="none" stroke-width="0.7"/>
    <!-- Decorative dots on base -->
    <circle cx="18" cy="34.5" r="0.6" fill="#8b6914" stroke="none"/>
    <circle cx="22.5" cy="34" r="0.6" fill="#8b6914" stroke="none"/>
    <circle cx="27" cy="34.5" r="0.6" fill="#8b6914" stroke="none"/>
    <!-- Stone texture lines -->
    <path d="M18 22v-3" fill="none" stroke-width="0.5"/>
    <path d="M22.5 22v-3" fill="none" stroke-width="0.5"/>
    <path d="M27 22v-3" fill="none" stroke-width="0.5"/>
  </g>
</svg>
