<svg xmlns="http://www.w3.org/2000/svg" viewBox="0 0 45 45">
  <g fill="#f8f0e0" stroke="#5c3d2e" stroke-width="1.5" stroke-linecap="round" stroke-linejoin="round">
    <!-- Base -->
    <path d="M10 39c0 0 2.5-1 12.5-1s12.5 1 12.5 1v-2c0 0-2.5-1-12.5-1s-12.5 1-12.5 1v2z"/>
    <path d="M11 36c0 0 3-1.5 11.5-1.5s11.5 1.5 11.5 1.5v-2c0 0-3-1.5-11.5-1.5s-11.5 1.5-11.5 1.5v2z"/>
    <!-- Decorated collar -->
    <ellipse cx="22.5" cy="33" rx="9" ry="2"/>
    <circle cx="17" cy="33" r="0.6"/>
    <circle cx="22.5" cy="32.2" r="0.6"/>
    <circle cx="28" cy="33" r="0.6"/>
    <!-- Body -->
    <path d="M17 33c0 0-2-5 0-10s5-7 5.5-10c0.5 3 3.5 5 5.5 10s0 10 0 10"/>
    <!-- Mitre point -->
    <path d="M22.5 9l-4 6h8z"/>
    <!-- Cross on top -->
    <path d="M22.5 5v5" fill="none" stroke-width="1.8"/>
    <path d="M20.5 7.5h4" fill="none" stroke-width="1.8"/>
    <!-- Mitre slit -->
    <path d="M22.5 12v5" fill="none" stroke-width="0.8"/>
    <!-- Body decoration arcs -->
    <path d="M19 28c0 0 1.5-1 3.5-1s3.5 1 3.5 1" fill="none" stroke-width="0.7"/>
    <path d="M18 25c0 0 2-1 4.5-1s4.5 1 4.5 1" fill="none" stroke-width="0.7"/>
    <path d="M19.5 21c0 0 1.5-0.8 3-0.8s3 0.8 3 0.8" fill="none" stroke-width="0.7"/>
  </g>
</svg>
