<svg xmlns="http://www.w3.org/2000/svg" viewBox="0 0 45 45">
  <g fill="#f8f0e0" stroke="#5c3d2e" stroke-width="1.5" stroke-linecap="round" stroke-linejoin="round">
    <!-- Base -->
    <path d="M10 39c0 0 2-1 12.5-1s12.5 1 12.5 1v-2c0 0-2-1-12.5-1s-12.5 1-12.5 1v2z"/>
    <path d="M11 36c0 0 2.5-1.5 11.5-1.5s11.5 1.5 11.5 1.5v-2c0 0-2.5-1.5-11.5-1.5s-11.5 1.5-11.5 1.5v2z"/>
    <!-- Decorated base ring -->
    <ellipse cx="22.5" cy="33" rx="10.5" ry="2"/>
    <!-- Body -->
    <path d="M16 30c0 0-1.5-4 0-8c1.5-4 4-6.5 6.5-8c2.5 1.5 5 4 6.5 8c1.5 4 0 8 0 8"/>
    <!-- Collar ornament -->
    <path d="M15 30c0 0 3-1.5 7.5-1.5s7.5 1.5 7.5 1.5" fill="none"/>
    <circle cx="18" cy="30" r="0.8"/>
    <circle cx="22.5" cy="29.2" r="0.8"/>
    <circle cx="27" cy="30" r="0.8"/>
    <!-- Fleur-de-lis cross top -->
    <path d="M22.5 6v8" fill="none" stroke-width="1.8"/>
    <path d="M18.5 10h8" fill="none" stroke-width="1.8"/>
    <!-- Fleur-de-lis petals -->
    <path d="M22.5 4c-1.5 0-2.5 1.5-2 3c-1.5-1-3.2-0.3-3 1.5c1.5 0 2.8-0.5 3.2-1.5c0 1.5 0.5 3 1.8 3s1.8-1.5 1.8-3c0.4 1 1.7 1.5 3.2 1.5c0.2-1.8-1.5-2.5-3-1.5c0.5-1.5-0.5-3-2-3z"/>
    <!-- Body decoration lines -->
    <path d="M18 25c0 0 2-0.5 4.5-0.5s4.5 0.5 4.5 0.5" fill="none" stroke-width="0.7"/>
    <path d="M19 22c0 0 1.5-0.5 3.5-0.5s3.5 0.5 3.5 0.5" fill="none" stroke-width="0.7"/>
  </g>
</svg>
