<svg xmlns="http://www.w3.org/2000/svg" viewBox="0 0 45 45">
  <g fill="#f8f0e0" stroke="#5c3d2e" stroke-width="1.5" stroke-linecap="round" stroke-linejoin="round">
    <!-- Base -->
    <path d="M10 39c0 0 2.5-1 12.5-1s12.5 1 12.5 1v-2c0 0-2.5-1-12.5-1s-12.5 1-12.5 1v2z"/>
    <path d="M11 36c0 0 3-1.5 11.5-1.5s11.5 1.5 11.5 1.5v-2c0 0-3-1.5-11.5-1.5s-11.5 1.5-11.5 1.5v2z"/>
    <!-- Neck and body -->
    <path d="M16 33c0 0-1-4 0-7c1-3 3-5 3-5l-1.5-3c0 0 2-1 3-1c0 0-1-3 1-5c1 1 3 2 4 4c1.5-0.5 3.5 0 4 1.5c0.5 1.5-0.5 3-1.5 3.5l-1 1.5c0 0 3 3 3.5 7c0.5 3-0.5 7-0.5 7"/>
    <!-- Horse head shape -->
    <path d="M17.5 17l1.5 3c0 0-2.5 2-3 4" fill="none"/>
    <!-- Ear -->
    <path d="M21.5 10l-1-3l2.5 1.5"/>
    <!-- Eye -->
    <circle cx="23" cy="14" r="1" fill="#5c3d2e"/>
    <!-- Nostril -->
    <circle cx="17" cy="19" r="0.7" fill="#5c3d2e"/>
    <!-- Mane lines -->
    <path d="M24 11c1 1 2.5 2 2.5 4" fill="none" stroke-width="0.8"/>
    <path d="M25 13c1 0.5 2 2 2 3.5" fill="none" stroke-width="0.8"/>
    <path d="M25.5 16c1 0.5 1.5 2 1.5 3" fill="none" stroke-width="0.8"/>
    <!-- Collar decoration -->
    <circle cx="18.5" cy="33.5" r="0.6"/>
    <circle cx="22.5" cy="33" r="0.6"/>
    <circle cx="26.5" cy="33.5" r="0.6"/>
    <!-- Mouth line -->
    <path d="M15.5 20l3-1" fill="none" stroke-width="0.8"/>
  </g>
</svg>
