<svg xmlns="http://www.w3.org/2000/svg" viewBox="0 0 64 64">
  <path fill="#e8e6e1" d="M6 18a3 3 0 0 0-1 5.8l5.5 16.5A4 4 0 0 0 14.3 43h35.4a4 4 0 0 0 3.8-2.7L59 23.8A3 3 0 0 0 58 18a3 3 0 0 0-2.6 1.5L47 28l-8.5-14a3 3 0 0 0-2.5-1.5 3 3 0 0 0-2.5 1.5L25 28l-8.4-8.5A3 3 0 0 0 14 18a3 3 0 0 0-5 0H6zm6.5 28a2 2 0 0 0-2 2v4a2 2 0 0 0 2 2h39a2 2 0 0 0 2-2v-4a2 2 0 0 0-2-2h-39z"/>
  <circle fill="#e8e6e1" cx="32" cy="24" r="3"/>
  <circle fill="#e8e6e1" cx="9" cy="21" r="2"/>
  <circle fill="#e8e6e1" cx="55" cy="21" r="2"/>
</svg>
