<svg xmlns="http://www.w3.org/2000/svg" viewBox="0 0 64 64">
  <path fill="#e8e6e1" d="M32 4a2.5 2.5 0 0 0-2.5 2.5V10h-3a2.5 2.5 0 0 0 0 5h3v3.5c-7 1.5-12 5.5-14 10.5l-2.5-3a2 2 0 0 0-3.4 2l4 7C12.2 38.5 11 42.5 11 47c0 2 .5 3.8 1.5 5H10a2 2 0 0 0-2 2v4a2 2 0 0 0 2 2h44a2 2 0 0 0 2-2v-4a2 2 0 0 0-2-2h-2.5c1-1.2 1.5-3 1.5-5 0-4.5-1.2-8.5-2.6-12l4-7a2 2 0 0 0-3.4-2l-2.5 3c-2-5-7-9-14-10.5V15h3a2.5 2.5 0 0 0 0-5h-3V6.5A2.5 2.5 0 0 0 32 4zM20 40c0-6.6 5.4-12 12-12s12 5.4 12 12c0 4-1.5 7-4 9H24c-2.5-2-4-5-4-9z"/>
</svg>
