<svg xmlns="http://www.w3.org/2000/svg" viewBox="0 0 64 64">
  <path fill="#e8e6e1" d="M32 4a3 3 0 0 0-3 3 3 3 0 0 0 1.2 2.4L22 18l-6.5-7a2 2 0 0 0-3.3 1L9 30c-.6 2-.9 4-.9 6.5 0 4.5 1.2 8 3.4 10.5H10a2 2 0 0 0-2 2v4a2 2 0 0 0 2 2h44a2 2 0 0 0 2-2v-4a2 2 0 0 0-2-2h-1.5c2.2-2.5 3.4-6 3.4-10.5 0-2.5-.3-4.5-.9-6.5l-3.2-18a2 2 0 0 0-3.3-1L42 18l-8.2-8.6A3 3 0 0 0 35 7a3 3 0 0 0-3-3zM19 36c0-5 2.8-9.3 7-11.5V36h-7zm12-11.5c4.2 2.2 7 6.5 7 11.5h-7V24.5zM18 42h28c-1 4.5-5.5 7-14 7s-13-2.5-14-7z"/>
</svg>
