<svg xmlns="http://www.w3.org/2000/svg" viewBox="0 0 80 80" width="80" height="80">
  <!-- Background -->
  <circle cx="40" cy="40" r="40" fill="#3d3a37"/>
  <!-- Metallic neck/body -->
  <rect x="30" y="54" width="20" height="14" rx="1" fill="#7a7a7a"/>
  <line x1="32" y1="58" x2="48" y2="58" stroke="#8a8a8a" stroke-width="0.5"/>
  <line x1="32" y1="62" x2="48" y2="62" stroke="#8a8a8a" stroke-width="0.5"/>
  <!-- Robot body -->
  <path d="M18 80 Q40 66 62 80" fill="#6a6a6a"/>
  <!-- Scale pattern on body -->
  <path d="M26 74 L30 72 L34 74" fill="none" stroke="#7a7a7a" stroke-width="0.6"/>
  <path d="M36 76 L40 74 L44 76" fill="none" stroke="#7a7a7a" stroke-width="0.6"/>
  <path d="M46 74 L50 72 L54 74" fill="none" stroke="#7a7a7a" stroke-width="0.6"/>
  <!-- Dragon/lizard head - angular -->
  <path d="M26 44 L24 28 Q26 16 40 14 Q54 16 56 28 L54 44 Q52 54 40 56 Q28 54 26 44Z" fill="#bababa"/>
  <!-- Scales on forehead -->
  <path d="M32 18 L35 16 L38 18" fill="none" stroke="#9a9a9a" stroke-width="0.7"/>
  <path d="M38 18 L40 15 L42 18" fill="none" stroke="#9a9a9a" stroke-width="0.7"/>
  <path d="M42 18 L45 16 L48 18" fill="none" stroke="#9a9a9a" stroke-width="0.7"/>
  <path d="M30 22 L33 20 L36 22" fill="none" stroke="#9a9a9a" stroke-width="0.7"/>
  <path d="M36 22 L40 19 L44 22" fill="none" stroke="#9a9a9a" stroke-width="0.7"/>
  <path d="M44 22 L47 20 L50 22" fill="none" stroke="#9a9a9a" stroke-width="0.7"/>
  <!-- Ridge on top -->
  <path d="M36 14 L38 10 L40 14 L42 10 L44 14" fill="none" stroke="#81b64c" stroke-width="1" opacity="0.6"/>
  <!-- Angular reptilian eyes -->
  <path d="M28 32 L34 28 L38 32 L34 35Z" fill="#2a3a2a"/>
  <path d="M42 32 L46 28 L52 32 L46 35Z" fill="#2a3a2a"/>
  <!-- Slit pupils -->
  <ellipse cx="34" cy="31.5" rx="1" ry="3" fill="#81b64c"/>
  <ellipse cx="46" cy="31.5" rx="1" ry="3" fill="#81b64c"/>
  <ellipse cx="34" cy="31.5" rx="0.4" ry="2.5" fill="#1a1715"/>
  <ellipse cx="46" cy="31.5" rx="0.4" ry="2.5" fill="#1a1715"/>
  <!-- Angular brow ridges -->
  <line x1="26" y1="28" x2="38" y2="26" stroke="#a0a0a0" stroke-width="1.5" stroke-linecap="round"/>
  <line x1="42" y1="26" x2="54" y2="28" stroke="#a0a0a0" stroke-width="1.5" stroke-linecap="round"/>
  <!-- Snout/nose ridge -->
  <line x1="40" y1="34" x2="40" y2="44" stroke="#a0a0a0" stroke-width="1.2" stroke-linecap="round"/>
  <!-- Nostril slits -->
  <line x1="38" y1="43" x2="37" y2="44" stroke="#8a8a8a" stroke-width="0.8"/>
  <line x1="42" y1="43" x2="43" y2="44" stroke="#8a8a8a" stroke-width="0.8"/>
  <!-- Angular mouth -->
  <path d="M32 48 L40 50 L48 48" fill="none" stroke="#8a8a8a" stroke-width="1" stroke-linecap="round"/>
</svg>