<svg xmlns="http://www.w3.org/2000/svg" viewBox="0 0 80 80" width="80" height="80">
  <!-- Background -->
  <circle cx="40" cy="40" r="40" fill="#3d3a37"/>
  <!-- Neck/body connection -->
  <rect x="34" y="54" width="12" height="10" rx="1" fill="#5a5a5a"/>
  <line x1="36" y1="56" x2="36" y2="64" stroke="#81b64c" stroke-width="0.4" opacity="0.5"/>
  <line x1="40" y1="54" x2="40" y2="64" stroke="#81b64c" stroke-width="0.4" opacity="0.5"/>
  <line x1="44" y1="56" x2="44" y2="64" stroke="#81b64c" stroke-width="0.4" opacity="0.5"/>
  <!-- Body -->
  <path d="M20 80 Q40 66 60 80" fill="#4a4a4a"/>
  <!-- Circular head -->
  <circle cx="40" cy="34" r="22" fill="#5a5a5a"/>
  <circle cx="40" cy="34" r="20" fill="#4a4a4a"/>
  <!-- Neural pathway rings -->
  <circle cx="40" cy="34" r="18" fill="none" stroke="#81b64c" stroke-width="0.4" opacity="0.3"/>
  <circle cx="40" cy="34" r="14" fill="none" stroke="#81b64c" stroke-width="0.4" opacity="0.4"/>
  <circle cx="40" cy="34" r="10" fill="none" stroke="#81b64c" stroke-width="0.4" opacity="0.5"/>
  <!-- Neural pathway lines - radiating -->
  <line x1="40" y1="14" x2="40" y2="54" stroke="#81b64c" stroke-width="0.3" opacity="0.3"/>
  <line x1="20" y1="34" x2="60" y2="34" stroke="#81b64c" stroke-width="0.3" opacity="0.3"/>
  <line x1="25" y1="19" x2="55" y2="49" stroke="#81b64c" stroke-width="0.3" opacity="0.3"/>
  <line x1="55" y1="19" x2="25" y2="49" stroke="#81b64c" stroke-width="0.3" opacity="0.3"/>
  <!-- Neural nodes at intersections -->
  <circle cx="40" cy="20" r="1.2" fill="#81b64c" opacity="0.6"/>
  <circle cx="40" cy="48" r="1.2" fill="#81b64c" opacity="0.6"/>
  <circle cx="26" cy="34" r="1.2" fill="#81b64c" opacity="0.6"/>
  <circle cx="54" cy="34" r="1.2" fill="#81b64c" opacity="0.6"/>
  <circle cx="29" cy="23" r="1" fill="#81b64c" opacity="0.5"/>
  <circle cx="51" cy="23" r="1" fill="#81b64c" opacity="0.5"/>
  <circle cx="29" cy="45" r="1" fill="#81b64c" opacity="0.5"/>
  <circle cx="51" cy="45" r="1" fill="#81b64c" opacity="0.5"/>
  <!-- Dot-matrix eyes -->
  <circle cx="33" cy="32" r="1.2" fill="#81b64c"/>
  <circle cx="35" cy="32" r="1.2" fill="#81b64c"/>
  <circle cx="33" cy="34" r="1.2" fill="#81b64c"/>
  <circle cx="35" cy="34" r="1.2" fill="#81b64c" opacity="0.5"/>
  <circle cx="45" cy="32" r="1.2" fill="#81b64c"/>
  <circle cx="47" cy="32" r="1.2" fill="#81b64c"/>
  <circle cx="45" cy="34" r="1.2" fill="#81b64c" opacity="0.5"/>
  <circle cx="47" cy="34" r="1.2" fill="#81b64c"/>
  <!-- Minimal mouth indicator -->
  <line x1="36" y1="42" x2="44" y2="42" stroke="#81b64c" stroke-width="0.8" opacity="0.5"/>
  <!-- Glow effect on head -->
  <circle cx="40" cy="34" r="20" fill="none" stroke="#81b64c" stroke-width="0.6" opacity="0.15"/>
</svg>