<?xml version="1.0" encoding="UTF-8"?>
<svg xmlns="http://www.w3.org/2000/svg" viewBox="0 0 45 45">
  <g fill="#333" stroke="#000" stroke-width="1.5" stroke-linecap="round" stroke-linejoin="round">
    <!-- Crown circles -->
    <circle cx="6" cy="12" r="2.75" fill="#333"/>
    <circle cx="14" cy="9" r="2.75" fill="#333"/>
    <circle cx="22.5" cy="8" r="2.75" fill="#333"/>
    <circle cx="31" cy="9" r="2.75" fill="#333"/>
    <circle cx="39" cy="12" r="2.75" fill="#333"/>
    <!-- Body -->
    <path d="M9 26c8.5-1.5 21-1.5 27 0l2.5-12.5L31 25l-3.5-7-5 6.5-5-6.5-3.5 7-7.5-13.5L9 26z" stroke-linecap="butt"/>
    <path d="M9 26c0 2 1.5 2 2.5 4 1 1.5 1 1 .5 3.5-1.5 1-1.5 2.5-1.5 2.5-1.5 1.5.5 2.5.5 2.5 6.5 1 16.5 1 23 0 0 0 1.5-1 0-2.5 0 0 .5-1.5-1-2.5-.5-2.5-.5-2 .5-3.5 1-2 2.5-2 2.5-4-8.5-1.5-18.5-1.5-27 0z" stroke-linecap="butt"/>
    <!-- White detail lines -->
    <path d="M11.5 30c3.5-1 18.5-1 22 0" fill="none" stroke="#fff"/>
    <path d="M12 33.5c6-1 15-1 21 0" fill="none" stroke="#fff"/>
  </g>
</svg>
