<svg xmlns="http://www.w3.org/2000/svg" viewBox="0 0 80 80" width="80" height="80">
  <!-- Background -->
  <circle cx="40" cy="40" r="40" fill="#3d3a37"/>
  <!-- Neck -->
  <rect x="34" y="52" width="12" height="14" rx="2" fill="#e0d5c7"/>
  <!-- Suit jacket -->
  <path d="M18 80 Q40 62 62 80" fill="#2a2a30"/>
  <path d="M28 60 L34 68 L34 60" fill="#2a2a30"/>
  <path d="M52 60 L46 68 L46 60" fill="#2a2a30"/>
  <!-- White shirt -->
  <path d="M34 58 L40 68 L46 58" fill="#e8e4e0"/>
  <!-- Tie -->
  <path d="M39 60 L40 74 L41 60Z" fill="#81b64c"/>
  <path d="M38.5 58 L41.5 58 L41 60 L39 60Z" fill="#81b64c"/>
  <!-- Lapels -->
  <line x1="34" y1="58" x2="30" y2="72" stroke="#3a3a40" stroke-width="0.8"/>
  <line x1="46" y1="58" x2="50" y2="72" stroke="#3a3a40" stroke-width="0.8"/>
  <!-- Face - sharp, defined -->
  <path d="M29 42 Q29 22 40 18 Q51 22 51 42 Q49 53 40 55 Q31 53 29 42Z" fill="#e0d5c7"/>
  <!-- Slicked-back hair -->
  <path d="M28 30 Q27 14 40 11 Q53 14 52 30 Q52 16 46 14 Q40 12 34 14 Q28 16 28 24Z" fill="#1a1715"/>
  <path d="M28 24 Q26 18 28 14 Q26 16 26 22Z" fill="#1a1715"/>
  <path d="M52 24 Q54 18 52 14 Q54 16 54 22Z" fill="#1a1715"/>
  <!-- Slick lines in hair -->
  <line x1="32" y1="14" x2="30" y2="22" stroke="#2a2520" stroke-width="0.4"/>
  <line x1="38" y1="12" x2="36" y2="20" stroke="#2a2520" stroke-width="0.4"/>
  <line x1="44" y1="12" x2="46" y2="20" stroke="#2a2520" stroke-width="0.4"/>
  <!-- Focused determined eyes -->
  <ellipse cx="34" cy="34" rx="3.5" ry="3" fill="white"/>
  <ellipse cx="46" cy="34" rx="3.5" ry="3" fill="white"/>
  <circle cx="34.5" cy="34" r="2.2" fill="#1a1715"/>
  <circle cx="46.5" cy="34" r="2.2" fill="#1a1715"/>
  <circle cx="35" cy="33.5" r="0.8" fill="#81b64c"/>
  <circle cx="47" cy="33.5" r="0.8" fill="#81b64c"/>
  <!-- Determined straight eyebrows -->
  <line x1="29" y1="30" x2="37" y2="29.5" stroke="#1a1715" stroke-width="1.3" stroke-linecap="round"/>
  <line x1="43" y1="29.5" x2="51" y2="30" stroke="#1a1715" stroke-width="1.3" stroke-linecap="round"/>
  <!-- Defined nose -->
  <line x1="40" y1="36" x2="39.5" y2="43" stroke="#c4b9ac" stroke-width="1" stroke-linecap="round"/>
  <!-- Professional slight smile -->
  <path d="M36 47 Q40 49 44 47" fill="none" stroke="#b09e8e" stroke-width="1" stroke-linecap="round"/>
  <!-- Strong chin -->
  <path d="M38 53 Q40 54 42 53" fill="none" stroke="#c4b9ac" stroke-width="0.5"/>
  <!-- Ears -->
  <ellipse cx="27" cy="36" rx="2" ry="3.5" fill="#d4c9bb"/>
  <ellipse cx="53" cy="36" rx="2" ry="3.5" fill="#d4c9bb"/>
</svg>