<svg xmlns="http://www.w3.org/2000/svg" viewBox="0 0 80 80" width="80" height="80">
  <!-- Background -->
  <circle cx="40" cy="40" r="40" fill="#3d3a37"/>
  <!-- Neck -->
  <rect x="33" y="52" width="14" height="12" rx="2" fill="#e0d5c7"/>
  <!-- Hoodie -->
  <path d="M20 80 Q40 62 60 80" fill="#5a5a6a"/>
  <path d="M30 60 L30 70 Q40 64 50 70 L50 60" fill="#5a5a6a"/>
  <!-- Hood drawstrings -->
  <line x1="36" y1="64" x2="36" y2="72" stroke="#8a8a9a" stroke-width="0.7"/>
  <line x1="44" y1="64" x2="44" y2="72" stroke="#8a8a9a" stroke-width="0.7"/>
  <!-- Face - relaxed, slightly wide -->
  <path d="M28 43 Q28 22 40 18 Q52 22 52 43 Q50 54 40 56 Q30 54 28 43Z" fill="#e0d5c7"/>
  <!-- Messy hair -->
  <path d="M26 26 Q28 12 40 10 Q52 12 54 26 Q52 14 44 12 Q36 12 28 16Z" fill="#6b4c2a"/>
  <path d="M28 16 Q26 10 30 8 Q28 12 32 14Z" fill="#6b4c2a"/>
  <path d="M48 14 Q52 8 54 12 Q52 14 50 16Z" fill="#6b4c2a"/>
  <path d="M36 12 Q38 6 42 8 Q40 10 38 14Z" fill="#6b4c2a"/>
  <path d="M44 11 Q48 6 50 10 Q48 12 46 14Z" fill="#6b4c2a"/>
  <path d="M26 26 Q24 20 26 16 Q24 14 24 22Z" fill="#6b4c2a"/>
  <!-- Eyes - relaxed, slightly squinting -->
  <ellipse cx="34" cy="35" rx="3.5" ry="2.5" fill="white"/>
  <ellipse cx="46" cy="35" rx="3.5" ry="2.5" fill="white"/>
  <circle cx="34" cy="35" r="2" fill="#1a1715"/>
  <circle cx="46" cy="35" r="2" fill="#1a1715"/>
  <circle cx="34.6" cy="34.5" r="0.7" fill="white"/>
  <circle cx="46.6" cy="34.5" r="0.7" fill="white"/>
  <!-- Chill eyebrows -->
  <line x1="30" y1="31" x2="37" y2="31.5" stroke="#6b4c2a" stroke-width="1" stroke-linecap="round"/>
  <line x1="43" y1="31.5" x2="50" y2="31" stroke="#6b4c2a" stroke-width="1" stroke-linecap="round"/>
  <!-- Nose -->
  <line x1="40" y1="36" x2="39.5" y2="42" stroke="#c4b9ac" stroke-width="1" stroke-linecap="round"/>
  <!-- Big friendly grin -->
  <path d="M33 46 Q40 52 47 46" fill="none" stroke="#b09e8e" stroke-width="1.3" stroke-linecap="round"/>
  <path d="M34 47 Q40 50 46 47" fill="white" opacity="0.5"/>
  <!-- Ears -->
  <ellipse cx="27" cy="37" rx="2.5" ry="4" fill="#d4c9bb"/>
  <ellipse cx="53" cy="37" rx="2.5" ry="4" fill="#d4c9bb"/>
</svg>