<svg xmlns="http://www.w3.org/2000/svg" viewBox="0 0 80 80" width="80" height="80">
  <!-- Background -->
  <circle cx="40" cy="40" r="40" fill="#3d3a37"/>
  <!-- Neck -->
  <rect x="33" y="52" width="14" height="14" rx="2" fill="#e0d5c7"/>
  <!-- Collared shirt -->
  <path d="M20 80 Q40 64 60 80" fill="#4a6a8a"/>
  <path d="M30 58 L34 66 L40 60 L46 66 L50 58" fill="#4a6a8a"/>
  <!-- Collar flaps -->
  <path d="M34 66 L30 62 L34 58" fill="white" opacity="0.3"/>
  <path d="M46 66 L50 62 L46 58" fill="white" opacity="0.3"/>
  <!-- Face - mature, slightly square -->
  <path d="M28 43 Q28 22 40 19 Q52 22 52 43 Q50 54 40 56 Q30 54 28 43Z" fill="#e0d5c7"/>
  <!-- Neat short hair -->
  <path d="M27 30 Q27 14 40 12 Q53 14 53 30 Q53 18 46 15 Q40 13 34 15 Q28 18 27 30Z" fill="#5a5048"/>
  <path d="M27 30 Q26 22 28 16 Q26 18 26 26Z" fill="#5a5048"/>
  <path d="M53 30 Q54 22 52 16 Q54 18 54 26Z" fill="#5a5048"/>
  <!-- Glasses -->
  <rect x="28" y="31" width="11" height="9" rx="2" fill="none" stroke="#8a8078" stroke-width="1.2"/>
  <rect x="41" y="31" width="11" height="9" rx="2" fill="none" stroke="#8a8078" stroke-width="1.2"/>
  <line x1="39" y1="35" x2="41" y2="35" stroke="#8a8078" stroke-width="1"/>
  <line x1="28" y1="35" x2="26" y2="34" stroke="#8a8078" stroke-width="0.8"/>
  <line x1="52" y1="35" x2="54" y2="34" stroke="#8a8078" stroke-width="0.8"/>
  <!-- Eyes behind glasses -->
  <circle cx="33.5" cy="35.5" r="2" fill="#1a1715"/>
  <circle cx="46.5" cy="35.5" r="2" fill="#1a1715"/>
  <circle cx="34" cy="35" r="0.7" fill="#81b64c"/>
  <circle cx="47" cy="35" r="0.7" fill="#81b64c"/>
  <!-- Eyebrows - studious -->
  <line x1="29" y1="29" x2="37" y2="29.5" stroke="#5a5048" stroke-width="1.2" stroke-linecap="round"/>
  <line x1="43" y1="29.5" x2="51" y2="29" stroke="#5a5048" stroke-width="1.2" stroke-linecap="round"/>
  <!-- Nose -->
  <line x1="40" y1="37" x2="39.5" y2="43" stroke="#c4b9ac" stroke-width="1" stroke-linecap="round"/>
  <!-- Earnest slight smile -->
  <path d="M36 48 Q40 50 44 48" fill="none" stroke="#b09e8e" stroke-width="1" stroke-linecap="round"/>
  <!-- Ears -->
  <ellipse cx="26" cy="37" rx="2.5" ry="4" fill="#d4c9bb"/>
  <ellipse cx="54" cy="37" rx="2.5" ry="4" fill="#d4c9bb"/>
</svg>