<svg xmlns="http://www.w3.org/2000/svg" viewBox="0 0 80 80" width="80" height="80">
  <!-- Background -->
  <circle cx="40" cy="40" r="40" fill="#3d3a37"/>
  <!-- Neck -->
  <rect x="33" y="52" width="14" height="14" rx="2" fill="#e0d5c7"/>
  <!-- Tweed-style collar -->
  <path d="M20 80 Q40 64 60 80" fill="#7a6a54"/>
  <path d="M30 60 L35 66 L40 62 L45 66 L50 60" fill="#7a6a54"/>
  <!-- Tweed texture -->
  <line x1="24" y1="74" x2="26" y2="72" stroke="#8a7a64" stroke-width="0.4"/>
  <line x1="28" y1="76" x2="30" y2="74" stroke="#8a7a64" stroke-width="0.4"/>
  <line x1="54" y1="74" x2="56" y2="72" stroke="#8a7a64" stroke-width="0.4"/>
  <line x1="50" y1="76" x2="52" y2="74" stroke="#8a7a64" stroke-width="0.4"/>
  <!-- Shirt underneath -->
  <path d="M36 62 L40 58 L44 62" fill="#c8c0b0"/>
  <!-- Face - older, thoughtful -->
  <path d="M28 43 Q28 22 40 19 Q52 22 52 43 Q50 54 40 56 Q30 54 28 43Z" fill="#e0d5c7"/>
  <!-- Gray hair - distinguished -->
  <path d="M27 30 Q26 16 40 12 Q54 16 53 30 Q53 18 47 15 Q40 13 33 15 Q28 18 27 24Z" fill="#9a9590"/>
  <path d="M27 30 Q25 22 27 18 Q25 20 25 28Z" fill="#9a9590"/>
  <path d="M53 30 Q55 22 53 18 Q55 20 55 28Z" fill="#9a9590"/>
  <!-- Side part -->
  <line x1="34" y1="12" x2="33" y2="20" stroke="#8a8580" stroke-width="0.5"/>
  <!-- Reading glasses - low on nose -->
  <rect x="31" y="40" width="8" height="6" rx="1.5" fill="none" stroke="#8a7060" stroke-width="1"/>
  <rect x="41" y="40" width="8" height="6" rx="1.5" fill="none" stroke="#8a7060" stroke-width="1"/>
  <line x1="39" y1="43" x2="41" y2="43" stroke="#8a7060" stroke-width="0.8"/>
  <line x1="31" y1="42" x2="27" y2="38" stroke="#8a7060" stroke-width="0.7"/>
  <line x1="49" y1="42" x2="53" y2="38" stroke="#8a7060" stroke-width="0.7"/>
  <!-- Eyes - wise, above glasses -->
  <ellipse cx="34" cy="34" rx="3.5" ry="2.5" fill="white"/>
  <ellipse cx="46" cy="34" rx="3.5" ry="2.5" fill="white"/>
  <circle cx="34" cy="34.2" r="2" fill="#1a1715"/>
  <circle cx="46" cy="34.2" r="2" fill="#1a1715"/>
  <circle cx="34.4" cy="33.8" r="0.7" fill="#81b64c"/>
  <circle cx="46.4" cy="33.8" r="0.7" fill="#81b64c"/>
  <!-- Relaxed eyebrows -->
  <line x1="29" y1="30" x2="37" y2="30.5" stroke="#9a9590" stroke-width="1" stroke-linecap="round"/>
  <line x1="43" y1="30.5" x2="51" y2="30" stroke="#9a9590" stroke-width="1" stroke-linecap="round"/>
  <!-- Nose -->
  <line x1="40" y1="36" x2="39.5" y2="42" stroke="#c4b9ac" stroke-width="1" stroke-linecap="round"/>
  <!-- Knowing smile -->
  <path d="M36 49 Q40 51 44 49" fill="none" stroke="#b09e8e" stroke-width="1" stroke-linecap="round"/>
  <!-- Slight crow's feet - age lines -->
  <path d="M27 33 Q28 34 28 36" fill="none" stroke="#c4b9ac" stroke-width="0.4"/>
  <path d="M53 33 Q52 34 52 36" fill="none" stroke="#c4b9ac" stroke-width="0.4"/>
  <!-- Ears -->
  <ellipse cx="26" cy="37" rx="2.5" ry="4" fill="#d4c9bb"/>
  <ellipse cx="54" cy="37" rx="2.5" ry="4" fill="#d4c9bb"/>
</svg>