<svg xmlns="http://www.w3.org/2000/svg" viewBox="0 0 80 80" width="80" height="80">
  <!-- Background -->
  <circle cx="40" cy="40" r="40" fill="#3d3a37"/>
  <!-- Neck -->
  <rect x="33" y="52" width="14" height="12" rx="2" fill="#e0d5c7"/>
  <!-- Athletic collar -->
  <path d="M20 80 Q40 64 60 80" fill="#2a2a2a"/>
  <path d="M32 58 L32 66 L48 66 L48 58" fill="#2a2a2a"/>
  <!-- Lightning bolt on shirt -->
  <polygon points="42,62 38,68 41,68 39,74 45,66 42,66 44,62" fill="#81b64c"/>
  <!-- Face - angular, dynamic -->
  <path d="M29 42 Q29 22 40 18 Q51 22 51 42 Q50 53 40 55 Q30 53 29 42Z" fill="#e0d5c7"/>
  <!-- Spiky hair -->
  <polygon points="28,24 24,8 32,18" fill="#1a1715"/>
  <polygon points="33,18 30,4 38,14" fill="#1a1715"/>
  <polygon points="38,14 38,2 42,12" fill="#1a1715"/>
  <polygon points="42,12 44,0 46,14" fill="#1a1715"/>
  <polygon points="46,14 50,4 48,18" fill="#1a1715"/>
  <polygon points="48,18 56,8 52,24" fill="#1a1715"/>
  <path d="M28 24 Q28 16 33 14 Q38 12 42 12 Q46 12 48 14 Q52 16 52 24" fill="#1a1715"/>
  <!-- Lightning streak in hair -->
  <polygon points="36,10 34,16 37,15 35,20 39,13 37,14 38,10" fill="#81b64c" opacity="0.7"/>
  <!-- Intense narrow eyes -->
  <path d="M29 34 L34 32 L39 34 L34 35.5Z" fill="white"/>
  <path d="M41 34 L46 32 L51 34 L46 35.5Z" fill="white"/>
  <circle cx="34" cy="33.8" r="1.8" fill="#1a1715"/>
  <circle cx="46" cy="33.8" r="1.8" fill="#1a1715"/>
  <circle cx="34.3" cy="33.3" r="0.6" fill="#81b64c"/>
  <circle cx="46.3" cy="33.3" r="0.6" fill="#81b64c"/>
  <!-- Sharp angled eyebrows -->
  <line x1="28" y1="31" x2="35" y2="29" stroke="#1a1715" stroke-width="1.5" stroke-linecap="round"/>
  <line x1="45" y1="29" x2="52" y2="31" stroke="#1a1715" stroke-width="1.5" stroke-linecap="round"/>
  <!-- Nose -->
  <line x1="40" y1="36" x2="39.5" y2="42" stroke="#c4b9ac" stroke-width="1" stroke-linecap="round"/>
  <!-- Determined grin -->
  <path d="M35 46 Q40 49 45 46" fill="none" stroke="#b09e8e" stroke-width="1.2" stroke-linecap="round"/>
  <!-- Ears -->
  <ellipse cx="27" cy="36" rx="2.5" ry="3.5" fill="#d4c9bb"/>
  <ellipse cx="53" cy="36" rx="2.5" ry="3.5" fill="#d4c9bb"/>
</svg>