<svg xmlns="http://www.w3.org/2000/svg" viewBox="0 0 80 80" width="80" height="80">
  <!-- Background -->
  <circle cx="40" cy="40" r="40" fill="#3d3a37"/>
  <!-- Neck -->
  <rect x="34" y="52" width="12" height="12" rx="2" fill="#e0d5c7"/>
  <!-- Military-style collar -->
  <path d="M20 80 Q40 64 60 80" fill="#3a4a3a"/>
  <path d="M30 60 L34 66 L34 60" fill="#3a4a3a"/>
  <path d="M50 60 L46 66 L46 60" fill="#3a4a3a"/>
  <!-- Stand-up collar edges -->
  <line x1="30" y1="60" x2="30" y2="66" stroke="#4a5a4a" stroke-width="1"/>
  <line x1="50" y1="60" x2="50" y2="66" stroke="#4a5a4a" stroke-width="1"/>
  <!-- Collar pins/buttons -->
  <circle cx="32" cy="63" r="0.8" fill="#81b64c"/>
  <circle cx="48" cy="63" r="0.8" fill="#81b64c"/>
  <!-- Face - sharp, angular feminine -->
  <path d="M29 42 Q29 22 40 18 Q51 22 51 42 Q49 53 40 55 Q31 53 29 42Z" fill="#e0d5c7"/>
  <!-- Short dark hair - sleek -->
  <path d="M27 32 Q26 16 40 12 Q54 16 53 32 Q53 18 48 15 Q42 13 36 14 Q30 16 27 22Z" fill="#1a1715"/>
  <path d="M27 32 Q25 24 27 18 Q25 20 25 28Z" fill="#1a1715"/>
  <path d="M53 32 Q55 24 53 18 Q55 20 55 28Z" fill="#1a1715"/>
  <!-- Sharp side bangs -->
  <path d="M27 22 Q28 18 32 16 L29 24Z" fill="#1a1715"/>
  <!-- Piercing eyes -->
  <ellipse cx="34" cy="34" rx="4" ry="3" fill="white"/>
  <ellipse cx="46" cy="34" rx="4" ry="3" fill="white"/>
  <circle cx="34.5" cy="34" r="2.2" fill="#1a1715"/>
  <circle cx="46.5" cy="34" r="2.2" fill="#1a1715"/>
  <circle cx="35" cy="33.5" r="0.8" fill="#81b64c"/>
  <circle cx="47" cy="33.5" r="0.8" fill="#81b64c"/>
  <!-- Sharp arched eyebrows -->
  <path d="M29 29.5 Q33 27 38 29.5" fill="none" stroke="#1a1715" stroke-width="1.2" stroke-linecap="round"/>
  <path d="M42 29.5 Q47 27 51 29.5" fill="none" stroke="#1a1715" stroke-width="1.2" stroke-linecap="round"/>
  <!-- Eyelashes hint -->
  <line x1="30" y1="33" x2="29" y2="32" stroke="#1a1715" stroke-width="0.6"/>
  <line x1="50" y1="33" x2="51" y2="32" stroke="#1a1715" stroke-width="0.6"/>
  <!-- Nose - defined -->
  <line x1="40" y1="36" x2="39" y2="43" stroke="#c4b9ac" stroke-width="1" stroke-linecap="round"/>
  <path d="M38 43 Q39 44 41 43" fill="none" stroke="#c4b9ac" stroke-width="0.7"/>
  <!-- Confident smirk -->
  <path d="M36 47 Q40 49 46 46" fill="none" stroke="#b09e8e" stroke-width="1.2" stroke-linecap="round"/>
  <!-- Ears -->
  <ellipse cx="26" cy="36" rx="2" ry="3.5" fill="#d4c9bb"/>
  <ellipse cx="54" cy="36" rx="2" ry="3.5" fill="#d4c9bb"/>
</svg>