<svg xmlns="http://www.w3.org/2000/svg" viewBox="0 0 80 80" width="80" height="80">
  <circle cx="40" cy="40" r="40" fill="#3d3a37"/>
  <!-- Clothing / body -->
  <rect x="30" y="52" width="20" height="14" rx="2" fill="#e0d5c7"/>
  <path d="M18 80 Q40 66 62 80" fill="#4a4745"/>
  <path d="M22 68 L32 56 L32 68 Z" fill="#4a4745"/>
  <path d="M58 68 L48 56 L48 68 Z" fill="#4a4745"/>
  <!-- Collar / cravat -->
  <path d="M36 56 L39 63 L40 57 L41 63 L44 56" fill="none" stroke="#e8e2da" stroke-width="1.2"/>
  <!-- Face (broader) -->
  <path d="M25 40 Q25 20 40 17 Q55 20 55 40 L53 50 Q49 56 40 56 Q31 56 27 50 Z" fill="#e0d5c7"/>
  <path d="M27 49 Q31 55 40 56 Q49 55 53 49" fill="none" stroke="#d0c5b7" stroke-width="0.5"/>
  <!-- Wild dark hair swept back -->
  <path d="M25 36 Q23 14 40 11 Q57 14 55 36 Q54 18 40 15 Q26 18 25 36Z" fill="#3a2a1a"/>
  <!-- Wild hair flying outward -->
  <path d="M23 26 Q18 20 20 14 Q22 18 25 22 Z" fill="#3a2a1a"/>
  <path d="M57 26 Q62 20 60 14 Q58 18 55 22 Z" fill="#3a2a1a"/>
  <path d="M24 22 Q19 16 22 10 Q23 14 26 18 Z" fill="#3a2a1a"/>
  <path d="M56 22 Q61 16 58 10 Q57 14 54 18 Z" fill="#3a2a1a"/>
  <!-- More wild strands -->
  <path d="M26 30 Q22 28 21 24 Q24 27 27 28 Z" fill="#3a2a1a"/>
  <path d="M54 30 Q58 28 59 24 Q56 27 53 28 Z" fill="#3a2a1a"/>
  <!-- Hair over temples -->
  <path d="M25 30 L24 38 Q23 34 25 30Z" fill="#3a2a1a"/>
  <path d="M55 30 L56 38 Q57 34 55 30Z" fill="#3a2a1a"/>
  <!-- Intense brow -->
  <path d="M28 29 Q34 26 38 29" fill="none" stroke="#3a2a1a" stroke-width="2" stroke-linecap="round"/>
  <path d="M42 29 Q46 26 52 29" fill="none" stroke="#3a2a1a" stroke-width="2" stroke-linecap="round"/>
  <!-- Eyes -->
  <ellipse cx="34" cy="33" rx="3.2" ry="2.2" fill="white" opacity="0.9"/>
  <ellipse cx="46" cy="33" rx="3.2" ry="2.2" fill="white" opacity="0.9"/>
  <circle cx="34" cy="33" r="1.8" fill="#5a3a1a"/>
  <circle cx="46" cy="33" r="1.8" fill="#5a3a1a"/>
  <circle cx="34" cy="33" r="1" fill="#1a1715"/>
  <circle cx="46" cy="33" r="1" fill="#1a1715"/>
  <circle cx="34.4" cy="32.5" r="0.5" fill="#8a6a3a"/>
  <circle cx="46.4" cy="32.5" r="0.5" fill="#8a6a3a"/>
  <!-- Nose (broader) -->
  <line x1="40" y1="35" x2="40" y2="43" stroke="#c4b9ac" stroke-width="1" stroke-linecap="round"/>
  <path d="M37.5 43 Q40 45 42.5 43" fill="none" stroke="#c4b9ac" stroke-width="0.7"/>
  <!-- Mouth (stern) -->
  <line x1="35" y1="48.5" x2="45" y2="48.5" stroke="#b09e8e" stroke-width="1.3" stroke-linecap="round"/>
  <path d="M35 49.5 Q40 50.5 45 49.5" fill="none" stroke="#b09e8e" stroke-width="0.5"/>
  <!-- Ears -->
  <ellipse cx="24" cy="37" rx="2.5" ry="4" fill="#d4c9bb"/>
  <ellipse cx="56" cy="37" rx="2.5" ry="4" fill="#d4c9bb"/>
</svg>