<svg xmlns="http://www.w3.org/2000/svg" viewBox="0 0 80 80" width="80" height="80">
  <circle cx="40" cy="40" r="40" fill="#3d3a37"/>
  <!-- Clothing / body -->
  <rect x="32" y="52" width="16" height="14" rx="2" fill="#e0d5c7"/>
  <path d="M20 80 Q40 66 60 80" fill="#4a4745"/>
  <path d="M24 68 L34 56 L34 68 Z" fill="#4a4745"/>
  <path d="M56 68 L46 56 L46 68 Z" fill="#4a4745"/>
  <!-- Collar with bow tie -->
  <path d="M36 57 L38 62 L40 58 L42 62 L44 57" fill="none" stroke="#e8e2da" stroke-width="1"/>
  <path d="M38 58 L36 60 L38 62 Z" fill="#2a2a2a"/>
  <path d="M42 58 L44 60 L42 62 Z" fill="#2a2a2a"/>
  <circle cx="40" cy="60" r="1" fill="#2a2a2a"/>
  <!-- Face (slender, refined) -->
  <path d="M28 40 Q28 21 40 18 Q52 21 52 40 L50 50 Q47 56 40 56 Q33 56 30 50 Z" fill="#e0d5c7"/>
  <path d="M30 48 Q33 55 40 56 Q47 55 50 48" fill="none" stroke="#d0c5b7" stroke-width="0.5"/>
  <!-- Romantic wavy dark hair -->
  <path d="M28 34 Q27 16 40 13 Q53 16 52 34 Q51 20 40 17 Q29 20 28 34Z" fill="#4a3a2a"/>
  <!-- Wavy texture -->
  <path d="M30 22 Q33 18 36 22 Q38 18 40 20 Q42 17 44 22 Q46 18 50 22" fill="none" stroke="#3a2a1a" stroke-width="0.8"/>
  <!-- Hair swept to side -->
  <path d="M28 28 Q26 24 29 18 L28 24Z" fill="#4a3a2a"/>
  <path d="M52 28 Q54 22 51 16 Q53 20 52 26Z" fill="#4a3a2a"/>
  <!-- Sideburns (light) -->
  <path d="M28 32 L27 38 Q26 36 28 32Z" fill="#4a3a2a"/>
  <path d="M52 32 L53 38 Q54 36 52 32Z" fill="#4a3a2a"/>
  <!-- Eyes -->
  <ellipse cx="34" cy="34" rx="3" ry="2.2" fill="white" opacity="0.9"/>
  <ellipse cx="46" cy="34" rx="3" ry="2.2" fill="white" opacity="0.9"/>
  <circle cx="34" cy="34" r="1.8" fill="#3a4a6a"/>
  <circle cx="46" cy="34" r="1.8" fill="#3a4a6a"/>
  <circle cx="34" cy="34" r="1" fill="#1a1715"/>
  <circle cx="46" cy="34" r="1" fill="#1a1715"/>
  <circle cx="34.4" cy="33.5" r="0.5" fill="#6a8ab0"/>
  <circle cx="46.4" cy="33.5" r="0.5" fill="#6a8ab0"/>
  <!-- Eyebrows (thin, elegant) -->
  <path d="M29 30.5 Q34 29 37.5 31" fill="none" stroke="#4a3a2a" stroke-width="1" stroke-linecap="round"/>
  <path d="M42.5 31 Q46 29 51 30.5" fill="none" stroke="#4a3a2a" stroke-width="1" stroke-linecap="round"/>
  <!-- Nose (thin, elegant) -->
  <line x1="40" y1="36" x2="40" y2="43" stroke="#c4b9ac" stroke-width="0.8" stroke-linecap="round"/>
  <path d="M38.5 43 Q40 44 41.5 43" fill="none" stroke="#c4b9ac" stroke-width="0.5"/>
  <!-- Mouth (thin) -->
  <line x1="36" y1="48.5" x2="44" y2="48.5" stroke="#b09e8e" stroke-width="1" stroke-linecap="round"/>
  <!-- Ears -->
  <ellipse cx="27" cy="37" rx="2.5" ry="4" fill="#d4c9bb"/>
  <ellipse cx="53" cy="37" rx="2.5" ry="4" fill="#d4c9bb"/>
</svg>