<svg xmlns="http://www.w3.org/2000/svg" viewBox="0 0 80 80" width="80" height="80">
  <circle cx="40" cy="40" r="40" fill="#3d3a37"/>
  <!-- Clothing / body -->
  <rect x="31" y="52" width="18" height="14" rx="2" fill="#e0d5c7"/>
  <path d="M20 80 Q40 66 60 80" fill="#4a4745"/>
  <path d="M24 68 L33 56 L33 68 Z" fill="#4a4745"/>
  <path d="M56 68 L47 56 L47 68 Z" fill="#4a4745"/>
  <!-- Collar -->
  <path d="M36 57 L38 64 L40 58 L42 64 L44 57" fill="none" stroke="#e8e2da" stroke-width="1"/>
  <!-- Face -->
  <path d="M27 40 Q27 20 40 17 Q53 20 53 40 L51 50 Q48 56 40 56 Q32 56 29 50 Z" fill="#e0d5c7"/>
  <path d="M29 48 Q32 55 40 56 Q48 55 51 48" fill="none" stroke="#d0c5b7" stroke-width="0.5"/>
  <!-- Wavy dark hair swept forward -->
  <path d="M27 34 Q26 14 40 11 Q54 14 53 34 Q52 18 40 15 Q28 18 27 34Z" fill="#3a2a1a"/>
  <!-- Hair swept forward over forehead -->
  <path d="M30 18 Q34 14 40 22 Q36 16 30 18Z" fill="#3a2a1a"/>
  <path d="M50 18 Q46 14 40 22 Q44 16 50 18Z" fill="#3a2a1a"/>
  <path d="M28 22 Q32 16 38 24 Q34 18 28 22Z" fill="#3a2a1a"/>
  <!-- Hair volume -->
  <path d="M27 28 Q26 24 28 20 L27 26Z" fill="#3a2a1a"/>
  <path d="M53 28 Q54 24 52 20 L53 26Z" fill="#3a2a1a"/>
  <path d="M27 30 L26 36 Q25 34 27 30Z" fill="#3a2a1a"/>
  <path d="M53 30 L54 36 Q55 34 53 30Z" fill="#3a2a1a"/>
  <!-- Distinctive dark beard -->
  <path d="M29 44 Q29 54 40 58 Q51 54 51 44 L49 48 Q47 54 40 56 Q33 54 31 48 Z" fill="#3a2a1a"/>
  <!-- French-style goatee (pointed) -->
  <path d="M37 54 Q40 60 43 54" fill="#3a2a1a"/>
  <!-- Beard texture -->
  <path d="M34 48 Q35 51 34 54" fill="none" stroke="#2a1a0a" stroke-width="0.4"/>
  <path d="M40 48 Q40 53 40 57" fill="none" stroke="#2a1a0a" stroke-width="0.4"/>
  <path d="M46 48 Q45 51 46 54" fill="none" stroke="#2a1a0a" stroke-width="0.4"/>
  <!-- Mustache -->
  <path d="M34 44 Q37 43 40 44 Q43 43 46 44" fill="none" stroke="#3a2a1a" stroke-width="1.4" stroke-linecap="round"/>
  <!-- Eyes -->
  <ellipse cx="34" cy="34" rx="3.2" ry="2.2" fill="white" opacity="0.9"/>
  <ellipse cx="46" cy="34" rx="3.2" ry="2.2" fill="white" opacity="0.9"/>
  <circle cx="34" cy="34" r="1.8" fill="#5a3a1a"/>
  <circle cx="46" cy="34" r="1.8" fill="#5a3a1a"/>
  <circle cx="34" cy="34" r="1" fill="#1a1715"/>
  <circle cx="46" cy="34" r="1" fill="#1a1715"/>
  <circle cx="34.4" cy="33.5" r="0.5" fill="#8a6a3a"/>
  <circle cx="46.4" cy="33.5" r="0.5" fill="#8a6a3a"/>
  <!-- Eyebrows -->
  <path d="M28.5 30 Q34 28.5 38 30.5" fill="none" stroke="#3a2a1a" stroke-width="1.4" stroke-linecap="round"/>
  <path d="M42 30.5 Q46 28.5 51.5 30" fill="none" stroke="#3a2a1a" stroke-width="1.4" stroke-linecap="round"/>
  <!-- Nose -->
  <line x1="40" y1="36" x2="40" y2="43" stroke="#c4b9ac" stroke-width="0.9" stroke-linecap="round"/>
  <path d="M38 43 Q40 44.5 42 43" fill="none" stroke="#c4b9ac" stroke-width="0.6"/>
  <!-- Mouth (hidden by beard) -->
  <line x1="37" y1="47" x2="43" y2="47" stroke="#2a1a0a" stroke-width="0.7" stroke-linecap="round"/>
  <!-- Ears -->
  <ellipse cx="26" cy="37" rx="2.5" ry="4" fill="#d4c9bb"/>
  <ellipse cx="54" cy="37" rx="2.5" ry="4" fill="#d4c9bb"/>
</svg>