<svg xmlns="http://www.w3.org/2000/svg" viewBox="0 0 80 80" width="80" height="80">
  <circle cx="40" cy="40" r="40" fill="#3d3a37"/>
  <!-- Clothing / body -->
  <rect x="31" y="52" width="18" height="14" rx="2" fill="#e0d5c7"/>
  <path d="M20 80 Q40 66 60 80" fill="#4a4745"/>
  <path d="M24 68 L33 56 L33 68 Z" fill="#4a4745"/>
  <path d="M56 68 L47 56 L47 68 Z" fill="#4a4745"/>
  <!-- Collar -->
  <path d="M36 57 L38 64 L40 58 L42 64 L44 57" fill="none" stroke="#e8e2da" stroke-width="1"/>
  <!-- Face -->
  <path d="M26 40 Q26 20 40 17 Q54 20 54 40 L52 50 Q48 56 40 56 Q32 56 28 50 Z" fill="#e0d5c7"/>
  <!-- Full dark beard -->
  <path d="M28 42 Q28 56 40 60 Q52 56 52 42 L50 48 Q47 55 40 57 Q33 55 30 48 Z" fill="#3a2a1a"/>
  <!-- Beard texture -->
  <path d="M32 46 Q33 50 32 54" fill="none" stroke="#2a1a0a" stroke-width="0.5"/>
  <path d="M37 48 Q37 52 37 57" fill="none" stroke="#2a1a0a" stroke-width="0.5"/>
  <path d="M40 48 Q40 54 40 58" fill="none" stroke="#2a1a0a" stroke-width="0.5"/>
  <path d="M43 48 Q43 52 43 57" fill="none" stroke="#2a1a0a" stroke-width="0.5"/>
  <path d="M48 46 Q47 50 48 54" fill="none" stroke="#2a1a0a" stroke-width="0.5"/>
  <!-- Balding top with side hair -->
  <path d="M26 34 Q26 26 30 22 L28 24 Q26 28 26 34Z" fill="#3a2a1a"/>
  <path d="M54 34 Q54 26 50 22 L52 24 Q54 28 54 34Z" fill="#3a2a1a"/>
  <!-- Bald dome -->
  <path d="M30 22 Q35 14 40 13 Q45 14 50 22 Q45 16 40 15 Q35 16 30 22Z" fill="#e0d5c7"/>
  <!-- Thin hair on top -->
  <path d="M34 18 Q37 15 40 14.5 Q43 15 46 18" fill="none" stroke="#5a4a3a" stroke-width="0.3"/>
  <!-- Sideburns into beard -->
  <path d="M26 30 L25 42 Q24 38 26 32 Z" fill="#3a2a1a"/>
  <path d="M54 30 L55 42 Q56 38 54 32 Z" fill="#3a2a1a"/>
  <!-- Eyes (kindly) -->
  <ellipse cx="34" cy="33" rx="3.2" ry="2.2" fill="white" opacity="0.9"/>
  <ellipse cx="46" cy="33" rx="3.2" ry="2.2" fill="white" opacity="0.9"/>
  <circle cx="34" cy="33" r="1.8" fill="#3a4a6a"/>
  <circle cx="46" cy="33" r="1.8" fill="#3a4a6a"/>
  <circle cx="34" cy="33" r="1" fill="#1a1715"/>
  <circle cx="46" cy="33" r="1" fill="#1a1715"/>
  <circle cx="34.4" cy="32.5" r="0.5" fill="#6a8ab0"/>
  <circle cx="46.4" cy="32.5" r="0.5" fill="#6a8ab0"/>
  <!-- Eyebrows -->
  <path d="M28.5 29 Q34 27.5 38 29.5" fill="none" stroke="#3a2a1a" stroke-width="1.4" stroke-linecap="round"/>
  <path d="M42 29.5 Q46 27.5 51.5 29" fill="none" stroke="#3a2a1a" stroke-width="1.4" stroke-linecap="round"/>
  <!-- Nose -->
  <line x1="40" y1="35" x2="40" y2="42" stroke="#c4b9ac" stroke-width="0.9" stroke-linecap="round"/>
  <path d="M38 42 Q40 43.5 42 42" fill="none" stroke="#c4b9ac" stroke-width="0.6"/>
  <!-- Mouth (hidden by beard) -->
  <line x1="37" y1="47" x2="43" y2="47" stroke="#2a1a0a" stroke-width="0.7" stroke-linecap="round"/>
  <!-- Ears -->
  <ellipse cx="25" cy="36" rx="2.5" ry="4" fill="#d4c9bb"/>
  <ellipse cx="55" cy="36" rx="2.5" ry="4" fill="#d4c9bb"/>
</svg>