<svg xmlns="http://www.w3.org/2000/svg" viewBox="0 0 80 80" width="80" height="80">
  <circle cx="40" cy="40" r="40" fill="#3d3a37"/>
  <!-- Body -->
  <rect x="31" y="52" width="18" height="14" rx="2" fill="#e0d5c7"/>
  <path d="M20 80 Q40 66 60 80" fill="#5a3a3a"/>
  <path d="M24 68 L33 56 L33 68 Z" fill="#5a3a3a"/>
  <path d="M56 68 L47 56 L47 68 Z" fill="#5a3a3a"/>
  <!-- Collar -->
  <path d="M35 57 L38 62 L40 58 L42 62 L45 57" fill="none" stroke="#e8e2da" stroke-width="1"/>
  <!-- Face — slightly broader, determined -->
  <path d="M26 40 Q26 19 40 16 Q54 19 54 40 L52 50 Q48 56 40 56 Q32 56 28 50 Z" fill="#e0d5c7"/>
  <!-- Classical powdered wig — shorter -->
  <path d="M26 34 Q24 16 40 12 Q56 16 54 34 Q53 19 40 16 Q27 19 26 34Z" fill="#c8c2b8"/>
  <!-- Side rolls -->
  <path d="M24 30 Q20 32 21 36 Q22 40 24 38 Z" fill="#c8c2b8"/>
  <path d="M56 30 Q60 32 59 36 Q58 40 56 38 Z" fill="#c8c2b8"/>
  <!-- Eyes — intense, reformer's gaze -->
  <ellipse cx="34" cy="34" rx="3.2" ry="2.2" fill="white" opacity="0.9"/>
  <ellipse cx="46" cy="34" rx="3.2" ry="2.2" fill="white" opacity="0.9"/>
  <circle cx="34" cy="34" r="1.8" fill="#3a4a5a"/>
  <circle cx="46" cy="34" r="1.8" fill="#3a4a5a"/>
  <circle cx="34" cy="34" r="1" fill="#1a1715"/>
  <circle cx="46" cy="34" r="1" fill="#1a1715"/>
  <!-- Strong eyebrows -->
  <path d="M28 29.5 Q34 28 38 30" fill="none" stroke="#5a4a3a" stroke-width="1.5" stroke-linecap="round"/>
  <path d="M42 30 Q46 28 52 29.5" fill="none" stroke="#5a4a3a" stroke-width="1.5" stroke-linecap="round"/>
  <!-- Nose — prominent -->
  <line x1="40" y1="36" x2="39" y2="43" stroke="#c4b9ac" stroke-width="1" stroke-linecap="round"/>
  <path d="M37 43 Q39 45 42 43" fill="none" stroke="#c4b9ac" stroke-width="0.7"/>
  <!-- Firm mouth -->
  <line x1="35" y1="48.5" x2="45" y2="48.5" stroke="#b09e8e" stroke-width="1.3" stroke-linecap="round"/>
  <!-- Ears -->
  <ellipse cx="25" cy="37" rx="2.5" ry="4" fill="#d4c9bb"/>
  <ellipse cx="55" cy="37" rx="2.5" ry="4" fill="#d4c9bb"/>
</svg>
