<svg xmlns="http://www.w3.org/2000/svg" viewBox="0 0 80 80" width="80" height="80">
  <circle cx="40" cy="40" r="40" fill="#3d3a37"/>
  <!-- Clothing / body -->
  <rect x="31" y="52" width="18" height="14" rx="2" fill="#e0d5c7"/>
  <path d="M20 80 Q40 66 60 80" fill="#4a4745"/>
  <path d="M24 68 L33 56 L33 68 Z" fill="#4a4745"/>
  <path d="M56 68 L47 56 L47 68 Z" fill="#4a4745"/>
  <!-- Collar -->
  <path d="M36 57 L38 64 L40 58 L42 64 L44 57" fill="none" stroke="#e8e2da" stroke-width="1"/>
  <!-- Face -->
  <path d="M27 40 Q27 20 40 17 Q53 20 53 40 L51 50 Q48 56 40 56 Q32 56 29 50 Z" fill="#e0d5c7"/>
  <path d="M29 48 Q32 55 40 56 Q48 55 51 48" fill="none" stroke="#d0c5b7" stroke-width="0.5"/>
  <!-- Large mustache -->
  <path d="M33 44 Q36 43 40 44 Q44 43 47 44 Q50 46 52 44" fill="none" stroke="#7a6a5a" stroke-width="1.8" stroke-linecap="round"/>
  <path d="M28 44 Q30 46 33 44" fill="none" stroke="#7a6a5a" stroke-width="1.8" stroke-linecap="round"/>
  <!-- Mustache fill -->
  <path d="M33 43 Q36 42 40 43 Q44 42 47 43 Q47 46 40 46 Q33 46 33 43Z" fill="#7a6a5a"/>
  <!-- Wild light hair -->
  <path d="M27 34 Q26 14 40 11 Q54 14 53 34 Q52 18 40 15 Q28 18 27 34Z" fill="#8a7a6a"/>
  <!-- Wild hair tufts -->
  <path d="M28 20 Q24 14 26 9 Q27 13 30 17 Z" fill="#8a7a6a"/>
  <path d="M52 20 Q56 14 54 9 Q53 13 50 17 Z" fill="#8a7a6a"/>
  <path d="M34 14 Q32 8 35 6 Q35 10 37 13 Z" fill="#8a7a6a"/>
  <path d="M46 14 Q48 8 45 6 Q45 10 43 13 Z" fill="#8a7a6a"/>
  <!-- Sideburns -->
  <path d="M27 28 Q26 24 28 20 L27 26Z" fill="#8a7a6a"/>
  <path d="M53 28 Q54 24 52 20 L53 26Z" fill="#8a7a6a"/>
  <path d="M27 30 L26 36 Q25 34 27 30Z" fill="#8a7a6a"/>
  <path d="M53 30 L54 36 Q55 34 53 30Z" fill="#8a7a6a"/>
  <!-- Eyes -->
  <ellipse cx="34" cy="34" rx="3.2" ry="2.2" fill="white" opacity="0.9"/>
  <ellipse cx="46" cy="34" rx="3.2" ry="2.2" fill="white" opacity="0.9"/>
  <circle cx="34" cy="34" r="1.8" fill="#3a4a6a"/>
  <circle cx="46" cy="34" r="1.8" fill="#3a4a6a"/>
  <circle cx="34" cy="34" r="1" fill="#1a1715"/>
  <circle cx="46" cy="34" r="1" fill="#1a1715"/>
  <circle cx="34.4" cy="33.5" r="0.5" fill="#6a8ab0"/>
  <circle cx="46.4" cy="33.5" r="0.5" fill="#6a8ab0"/>
  <!-- Eyebrows -->
  <path d="M28.5 30 Q34 28.5 38 30.5" fill="none" stroke="#7a6a5a" stroke-width="1.4" stroke-linecap="round"/>
  <path d="M42 30.5 Q46 28.5 51.5 30" fill="none" stroke="#7a6a5a" stroke-width="1.4" stroke-linecap="round"/>
  <!-- Nose -->
  <line x1="40" y1="36" x2="40" y2="42" stroke="#c4b9ac" stroke-width="0.9" stroke-linecap="round"/>
  <path d="M38 42 Q40 43.5 42 42" fill="none" stroke="#c4b9ac" stroke-width="0.6"/>
  <!-- Mouth (under mustache) -->
  <line x1="37" y1="48.5" x2="43" y2="48.5" stroke="#b09e8e" stroke-width="1" stroke-linecap="round"/>
  <!-- Ears -->
  <ellipse cx="26" cy="37" rx="2.5" ry="4" fill="#d4c9bb"/>
  <ellipse cx="54" cy="37" rx="2.5" ry="4" fill="#d4c9bb"/>
</svg>