<svg xmlns="http://www.w3.org/2000/svg" viewBox="0 0 80 80" width="80" height="80">
  <circle cx="40" cy="40" r="40" fill="#3d3a37"/>
  <!-- Clothing / body -->
  <rect x="31" y="52" width="18" height="14" rx="2" fill="#e0d5c7"/>
  <path d="M20 80 Q40 66 60 80" fill="#5a4a3a"/>
  <path d="M24 68 L33 56 L33 68 Z" fill="#5a4a3a"/>
  <path d="M56 68 L47 56 L47 68 Z" fill="#5a4a3a"/>
  <!-- Collar -->
  <path d="M36 57 L38 64 L40 58 L42 64 L44 57" fill="none" stroke="#e8e2da" stroke-width="1"/>
  <!-- Face -->
  <path d="M26 40 Q26 20 40 17 Q54 20 54 40 L52 50 Q48 56 40 56 Q32 56 28 50 Z" fill="#e0d5c7"/>
  <!-- Powdered wig — fuller, classical style -->
  <path d="M24 36 Q22 12 40 8 Q58 12 56 36 Q55 16 40 12 Q25 16 24 36Z" fill="#d0ccc4"/>
  <!-- Wig rolls left -->
  <path d="M22 30 Q18 32 19 36 Q20 40 22 38 Q20 36 22 34 Z" fill="#d0ccc4"/>
  <path d="M20 36 Q16 38 17 42 Q18 46 20 44 Q18 42 20 40 Z" fill="#d0ccc4"/>
  <path d="M18 42 Q15 44 16 48 Q17 51 19 49 Q17 47 18 45 Z" fill="#d0ccc4"/>
  <!-- Wig rolls right -->
  <path d="M58 30 Q62 32 61 36 Q60 40 58 38 Q60 36 58 34 Z" fill="#d0ccc4"/>
  <path d="M60 36 Q64 38 63 42 Q62 46 60 44 Q62 42 60 40 Z" fill="#d0ccc4"/>
  <path d="M62 42 Q65 44 64 48 Q63 51 61 49 Q63 47 62 45 Z" fill="#d0ccc4"/>
  <!-- Eyes -->
  <ellipse cx="34" cy="34" rx="3" ry="2" fill="white" opacity="0.9"/>
  <ellipse cx="46" cy="34" rx="3" ry="2" fill="white" opacity="0.9"/>
  <circle cx="34" cy="34" r="1.7" fill="#4a3a2a"/>
  <circle cx="46" cy="34" r="1.7" fill="#4a3a2a"/>
  <circle cx="34" cy="34" r="0.9" fill="#1a1715"/>
  <circle cx="46" cy="34" r="0.9" fill="#1a1715"/>
  <!-- Eyebrows -->
  <path d="M29 30.5 Q34 29 38 31" fill="none" stroke="#7a6a5a" stroke-width="1.1" stroke-linecap="round"/>
  <path d="M42 31 Q46 29 51 30.5" fill="none" stroke="#7a6a5a" stroke-width="1.1" stroke-linecap="round"/>
  <!-- Nose -->
  <line x1="40" y1="36" x2="40" y2="43" stroke="#c4b9ac" stroke-width="0.9" stroke-linecap="round"/>
  <path d="M37.5 43 Q40 45 42.5 43" fill="none" stroke="#c4b9ac" stroke-width="0.6"/>
  <!-- Gentle smile -->
  <path d="M35 48 Q40 50.5 45 48" fill="none" stroke="#b09e8e" stroke-width="1" stroke-linecap="round"/>
  <!-- Ears -->
  <ellipse cx="24" cy="37" rx="2.5" ry="4" fill="#d4c9bb"/>
  <ellipse cx="56" cy="37" rx="2.5" ry="4" fill="#d4c9bb"/>
</svg>
