<svg xmlns="http://www.w3.org/2000/svg" viewBox="0 0 80 80" width="80" height="80">
  <circle cx="40" cy="40" r="40" fill="#3d3a37"/>
  <!-- Clothing / body -->
  <rect x="31" y="52" width="18" height="14" rx="2" fill="#e0d5c7"/>
  <path d="M20 80 Q40 66 60 80" fill="#4a4745"/>
  <path d="M24 68 L33 56 L33 68 Z" fill="#4a4745"/>
  <path d="M56 68 L47 56 L47 68 Z" fill="#4a4745"/>
  <!-- Collar -->
  <path d="M36 57 L38 64 L40 58 L42 64 L44 57" fill="none" stroke="#e8e2da" stroke-width="1"/>
  <!-- Face (youthful, refined) -->
  <path d="M27 40 Q27 20 40 17 Q53 20 53 40 L51 50 Q48 56 40 56 Q32 56 29 50 Z" fill="#e0d5c7"/>
  <path d="M29 48 Q32 55 40 56 Q48 55 51 48" fill="none" stroke="#d0c5b7" stroke-width="0.5"/>
  <!-- Curly dark hair -->
  <path d="M27 34 Q26 16 40 13 Q54 16 53 34 Q52 20 40 17 Q28 20 27 34Z" fill="#4a3a2a"/>
  <!-- Curly texture -->
  <circle cx="30" cy="18" r="2.5" fill="#4a3a2a"/>
  <circle cx="35" cy="14" r="2.5" fill="#4a3a2a"/>
  <circle cx="40" cy="13" r="2.5" fill="#4a3a2a"/>
  <circle cx="45" cy="14" r="2.5" fill="#4a3a2a"/>
  <circle cx="50" cy="18" r="2.5" fill="#4a3a2a"/>
  <circle cx="28" cy="24" r="2" fill="#4a3a2a"/>
  <circle cx="52" cy="24" r="2" fill="#4a3a2a"/>
  <!-- Slight sideburns -->
  <path d="M27 30 L26 38 Q25 35 27 31 Z" fill="#4a3a2a"/>
  <path d="M53 30 L54 38 Q55 35 53 31 Z" fill="#4a3a2a"/>
  <!-- Hair detail -->
  <path d="M27 28 Q26 24 28 20 L27 26Z" fill="#4a3a2a"/>
  <path d="M53 28 Q54 24 52 20 L53 26Z" fill="#4a3a2a"/>
  <!-- Eyes -->
  <ellipse cx="34" cy="34" rx="3.2" ry="2.2" fill="white" opacity="0.9"/>
  <ellipse cx="46" cy="34" rx="3.2" ry="2.2" fill="white" opacity="0.9"/>
  <circle cx="34" cy="34" r="1.8" fill="#5a3a1a"/>
  <circle cx="46" cy="34" r="1.8" fill="#5a3a1a"/>
  <circle cx="34" cy="34" r="1" fill="#1a1715"/>
  <circle cx="46" cy="34" r="1" fill="#1a1715"/>
  <circle cx="34.4" cy="33.5" r="0.5" fill="#8a6a3a"/>
  <circle cx="46.4" cy="33.5" r="0.5" fill="#8a6a3a"/>
  <!-- Eyebrows (refined) -->
  <path d="M29 30.5 Q34 29 38 31" fill="none" stroke="#4a3a2a" stroke-width="1.2" stroke-linecap="round"/>
  <path d="M42 31 Q46 29 51 30.5" fill="none" stroke="#4a3a2a" stroke-width="1.2" stroke-linecap="round"/>
  <!-- Nose -->
  <line x1="40" y1="36" x2="40" y2="43" stroke="#c4b9ac" stroke-width="0.9" stroke-linecap="round"/>
  <path d="M38 43 Q40 44.5 42 43" fill="none" stroke="#c4b9ac" stroke-width="0.6"/>
  <!-- Mouth (gentle smile) -->
  <path d="M36 48.5 Q40 50 44 48.5" fill="none" stroke="#b09e8e" stroke-width="1.1" stroke-linecap="round"/>
  <!-- Ears -->
  <ellipse cx="26" cy="37" rx="2.5" ry="4" fill="#d4c9bb"/>
  <ellipse cx="54" cy="37" rx="2.5" ry="4" fill="#d4c9bb"/>
</svg>