<svg xmlns="http://www.w3.org/2000/svg" viewBox="0 0 80 80" width="80" height="80">
  <circle cx="40" cy="40" r="40" fill="#3d3a37"/>
  <!-- Clothing / body -->
  <rect x="31" y="52" width="18" height="14" rx="2" fill="#e0d5c7"/>
  <path d="M20 80 Q40 66 60 80" fill="#5a3a3a"/>
  <path d="M24 68 L33 56 L33 68 Z" fill="#5a3a3a"/>
  <path d="M56 68 L47 56 L47 68 Z" fill="#5a3a3a"/>
  <!-- Ruffled collar -->
  <path d="M34 56 Q35 59 36 57 Q37 60 38 57 Q39 60 40 57 Q41 60 42 57 Q43 60 44 57 Q45 59 46 56" fill="none" stroke="#e8e2da" stroke-width="1.2"/>
  <path d="M35 58 Q36 61 37 59 Q38 62 39 59 Q40 62 41 59 Q42 62 43 59 Q44 61 45 58" fill="none" stroke="#e8e2da" stroke-width="0.8"/>
  <!-- Face (youthful, round) -->
  <path d="M26 40 Q26 20 40 17 Q54 20 54 40 L52 50 Q48 56 40 56 Q32 56 28 50 Z" fill="#e0d5c7"/>
  <path d="M28 48 Q32 55 40 56 Q48 55 52 48" fill="none" stroke="#d0c5b7" stroke-width="0.5"/>
  <!-- White powdered wig -->
  <path d="M26 34 Q25 14 40 11 Q55 14 54 34 Q53 18 40 15 Q27 18 26 34Z" fill="#d0ccc4"/>
  <!-- Wig side rolls -->
  <path d="M25 30 Q22 33 23 37 Q24 40 26 38 Q24 36 25 33 Z" fill="#d0ccc4"/>
  <path d="M55 30 Q58 33 57 37 Q56 40 54 38 Q56 36 55 33 Z" fill="#d0ccc4"/>
  <!-- Wig tied back (ribbon) -->
  <path d="M26 28 Q26 24 28 20 L27 26Z" fill="#d0ccc4"/>
  <path d="M54 28 Q54 24 52 20 L53 26Z" fill="#d0ccc4"/>
  <!-- Eyes -->
  <ellipse cx="34" cy="34" rx="3.2" ry="2.2" fill="white" opacity="0.9"/>
  <ellipse cx="46" cy="34" rx="3.2" ry="2.2" fill="white" opacity="0.9"/>
  <circle cx="34" cy="34" r="1.8" fill="#3a4a6a"/>
  <circle cx="46" cy="34" r="1.8" fill="#3a4a6a"/>
  <circle cx="34" cy="34" r="1" fill="#1a1715"/>
  <circle cx="46" cy="34" r="1" fill="#1a1715"/>
  <circle cx="34.4" cy="33.5" r="0.5" fill="#6a8ab0"/>
  <circle cx="46.4" cy="33.5" r="0.5" fill="#6a8ab0"/>
  <!-- Eyebrows (lighter, youthful) -->
  <path d="M29 30.5 Q34 29 38 31" fill="none" stroke="#8a7a6a" stroke-width="1" stroke-linecap="round"/>
  <path d="M42 31 Q46 29 51 30.5" fill="none" stroke="#8a7a6a" stroke-width="1" stroke-linecap="round"/>
  <!-- Nose -->
  <line x1="40" y1="36" x2="40" y2="42" stroke="#c4b9ac" stroke-width="0.9" stroke-linecap="round"/>
  <path d="M38.5 42 Q40 43.5 41.5 42" fill="none" stroke="#c4b9ac" stroke-width="0.6"/>
  <!-- Mouth (slight smile) -->
  <path d="M36 48 Q40 50 44 48" fill="none" stroke="#b09e8e" stroke-width="1.2" stroke-linecap="round"/>
  <!-- Ears -->
  <ellipse cx="25" cy="37" rx="2.5" ry="4" fill="#d4c9bb"/>
  <ellipse cx="55" cy="37" rx="2.5" ry="4" fill="#d4c9bb"/>
</svg>