<svg xmlns="http://www.w3.org/2000/svg" viewBox="0 0 80 80" width="80" height="80">
  <circle cx="40" cy="40" r="40" fill="#3d3a37"/>
  <!-- Clothing / body -->
  <rect x="31" y="53" width="18" height="14" rx="2" fill="#e0d5c7"/>
  <path d="M20 80 Q40 66 60 80" fill="#3a3530"/>
  <path d="M24 68 L33 56 L33 68 Z" fill="#3a3530"/>
  <path d="M56 68 L47 56 L47 68 Z" fill="#3a3530"/>
  <!-- Collar with cravat -->
  <path d="M36 57 L38 62 L40 58 L42 62 L44 57" fill="none" stroke="#c0b8a8" stroke-width="1"/>
  <!-- Face — round, characteristic -->
  <path d="M26 40 Q26 20 40 17 Q54 20 54 40 L52 50 Q48 56 40 56 Q32 56 28 50 Z" fill="#e0d5c7"/>
  <!-- Disheveled curly hair -->
  <path d="M24 34 Q22 14 40 10 Q58 14 56 34 Q55 18 40 14 Q25 18 24 34Z" fill="#6a4a30"/>
  <!-- Curly tufts -->
  <circle cx="28" cy="18" r="3" fill="#6a4a30"/>
  <circle cx="34" cy="14" r="3" fill="#6a4a30"/>
  <circle cx="40" cy="12" r="3" fill="#6a4a30"/>
  <circle cx="46" cy="14" r="3" fill="#6a4a30"/>
  <circle cx="52" cy="18" r="3" fill="#6a4a30"/>
  <circle cx="25" cy="24" r="2.5" fill="#6a4a30"/>
  <circle cx="55" cy="24" r="2.5" fill="#6a4a30"/>
  <!-- Eyes — expressive -->
  <ellipse cx="34" cy="34" rx="3.2" ry="2.2" fill="white" opacity="0.9"/>
  <ellipse cx="46" cy="34" rx="3.2" ry="2.2" fill="white" opacity="0.9"/>
  <circle cx="34" cy="34" r="1.8" fill="#4a5a3a"/>
  <circle cx="46" cy="34" r="1.8" fill="#4a5a3a"/>
  <circle cx="34" cy="34" r="1" fill="#1a1715"/>
  <circle cx="46" cy="34" r="1" fill="#1a1715"/>
  <!-- Eyebrows — thick -->
  <path d="M28 30 Q34 28.5 38 30.5" fill="none" stroke="#5a3a20" stroke-width="1.5" stroke-linecap="round"/>
  <path d="M42 30.5 Q46 28.5 52 30" fill="none" stroke="#5a3a20" stroke-width="1.5" stroke-linecap="round"/>
  <!-- Nose — broad -->
  <line x1="40" y1="36" x2="40" y2="43" stroke="#c4b9ac" stroke-width="1" stroke-linecap="round"/>
  <path d="M37 43 Q40 45.5 43 43" fill="none" stroke="#c4b9ac" stroke-width="0.7"/>
  <!-- Beard — full, unkempt -->
  <path d="M28 47 Q30 44 34 46 Q40 44 46 46 Q50 44 52 47 L52 54 Q48 60 40 62 Q32 60 28 54 Z" fill="#6a4a30"/>
  <!-- Mustache -->
  <path d="M33 46 Q36 44 40 45 Q44 44 47 46" fill="#6a4a30" stroke="none"/>
  <!-- Mouth hint under mustache -->
  <line x1="37" y1="48" x2="43" y2="48" stroke="#5a3a20" stroke-width="0.5" stroke-linecap="round"/>
  <!-- Ears -->
  <ellipse cx="25" cy="36" rx="2.5" ry="4" fill="#d4c9bb"/>
  <ellipse cx="55" cy="36" rx="2.5" ry="4" fill="#d4c9bb"/>
</svg>
