<svg xmlns="http://www.w3.org/2000/svg" viewBox="0 0 80 80" width="80" height="80">
  <circle cx="40" cy="40" r="40" fill="#3d3a37"/>
  <!-- Clothing / body -->
  <rect x="31" y="53" width="18" height="14" rx="2" fill="#e0d5c7"/>
  <path d="M20 80 Q40 66 60 80" fill="#3a3532"/>
  <path d="M24 68 L33 56 L33 68 Z" fill="#3a3532"/>
  <path d="M56 68 L47 56 L47 68 Z" fill="#3a3532"/>
  <!-- White collar — 17th century style -->
  <ellipse cx="40" cy="57" rx="10" ry="3" fill="#e8e4dc"/>
  <!-- Face -->
  <path d="M27 40 Q27 22 40 18 Q53 22 53 40 L51 50 Q47 56 40 56 Q33 56 29 50 Z" fill="#e0d5c7"/>
  <!-- Long dark hair — mid-baroque -->
  <path d="M25 38 Q23 16 40 12 Q57 16 55 38 Q54 20 40 16 Q26 20 25 38Z" fill="#4a3a28"/>
  <!-- Hair falling sides -->
  <path d="M25 35 Q22 38 22 44 Q22 50 24 48 Q22 44 24 40 Z" fill="#4a3a28"/>
  <path d="M55 35 Q58 38 58 44 Q58 50 56 48 Q58 44 56 40 Z" fill="#4a3a28"/>
  <path d="M23 44 Q20 48 21 52 Q22 55 24 53 Q22 50 23 47 Z" fill="#4a3a28"/>
  <path d="M57 44 Q60 48 59 52 Q58 55 56 53 Q58 50 57 47 Z" fill="#4a3a28"/>
  <!-- Eyes -->
  <ellipse cx="34" cy="34" rx="3" ry="2.2" fill="white" opacity="0.9"/>
  <ellipse cx="46" cy="34" rx="3" ry="2.2" fill="white" opacity="0.9"/>
  <circle cx="34" cy="34" r="1.7" fill="#3a2a1a"/>
  <circle cx="46" cy="34" r="1.7" fill="#3a2a1a"/>
  <circle cx="34" cy="34" r="0.9" fill="#1a1715"/>
  <circle cx="46" cy="34" r="0.9" fill="#1a1715"/>
  <!-- Eyebrows -->
  <path d="M29 30 Q34 29 38 31" fill="none" stroke="#5a4a3a" stroke-width="1.2" stroke-linecap="round"/>
  <path d="M42 31 Q46 29 51 30" fill="none" stroke="#5a4a3a" stroke-width="1.2" stroke-linecap="round"/>
  <!-- Nose -->
  <line x1="40" y1="36" x2="40" y2="43" stroke="#c4b9ac" stroke-width="0.9" stroke-linecap="round"/>
  <path d="M38 43 Q40 44.5 42 43" fill="none" stroke="#c4b9ac" stroke-width="0.6"/>
  <!-- Mouth -->
  <line x1="36" y1="48" x2="44" y2="48" stroke="#b09e8e" stroke-width="1" stroke-linecap="round"/>
  <!-- Ears -->
  <ellipse cx="26" cy="37" rx="2" ry="3.5" fill="#d4c9bb"/>
  <ellipse cx="54" cy="37" rx="2" ry="3.5" fill="#d4c9bb"/>
</svg>
