<svg xmlns="http://www.w3.org/2000/svg" viewBox="0 0 80 80" width="80" height="80">
  <circle cx="40" cy="40" r="40" fill="#3d3a37"/>
  <!-- Clothing / body -->
  <rect x="31" y="54" width="18" height="14" rx="2" fill="#e0d5c7"/>
  <path d="M20 80 Q40 68 60 80" fill="#4a4745"/>
  <path d="M24 70 L33 58 L33 70 Z" fill="#4a4745"/>
  <path d="M56 70 L47 58 L47 70 Z" fill="#4a4745"/>
  <!-- Collar -->
  <path d="M36 59 L38 66 L40 60 L42 66 L44 59" fill="none" stroke="#e8e2da" stroke-width="1"/>
  <!-- Face (tall, austere, longer) -->
  <path d="M29 40 Q29 18 40 14 Q51 18 51 40 L49 52 Q46 58 40 58 Q34 58 31 52 Z" fill="#e0d5c7"/>
  <path d="M31 50 Q34 57 40 58 Q46 57 49 50" fill="none" stroke="#d0c5b7" stroke-width="0.5"/>
  <!-- Short-cropped hair -->
  <path d="M29 34 Q28 16 40 12 Q52 16 51 34 Q50 18 40 15 Q30 18 29 34Z" fill="#3a2a1a"/>
  <!-- Very short, close-cropped style -->
  <path d="M29 28 Q29 22 32 18 L30 22 Q29 26 29 28Z" fill="#3a2a1a"/>
  <path d="M51 28 Q51 22 48 18 L50 22 Q51 26 51 28Z" fill="#3a2a1a"/>
  <!-- Eyes (austere) -->
  <ellipse cx="35" cy="33" rx="3" ry="2" fill="white" opacity="0.9"/>
  <ellipse cx="45" cy="33" rx="3" ry="2" fill="white" opacity="0.9"/>
  <circle cx="35" cy="33" r="1.6" fill="#5a5a5a"/>
  <circle cx="45" cy="33" r="1.6" fill="#5a5a5a"/>
  <circle cx="35" cy="33" r="0.9" fill="#1a1715"/>
  <circle cx="45" cy="33" r="0.9" fill="#1a1715"/>
  <circle cx="35.4" cy="32.5" r="0.4" fill="#8a8a8a"/>
  <circle cx="45.4" cy="32.5" r="0.4" fill="#8a8a8a"/>
  <!-- Eyebrows -->
  <path d="M30 29.5 Q35 28 38 30" fill="none" stroke="#3a2a1a" stroke-width="1.3" stroke-linecap="round"/>
  <path d="M42 30 Q45 28 50 29.5" fill="none" stroke="#3a2a1a" stroke-width="1.3" stroke-linecap="round"/>
  <!-- Nose (long) -->
  <line x1="40" y1="35" x2="40" y2="45" stroke="#c4b9ac" stroke-width="0.9" stroke-linecap="round"/>
  <path d="M38 45 Q40 46.5 42 45" fill="none" stroke="#c4b9ac" stroke-width="0.6"/>
  <!-- Mouth (thin, stern) -->
  <line x1="36" y1="50" x2="44" y2="50" stroke="#b09e8e" stroke-width="1" stroke-linecap="round"/>
  <!-- Prominent cheekbones -->
  <path d="M30 38 Q31 40 30 42" fill="none" stroke="#d0c5b7" stroke-width="0.4"/>
  <path d="M50 38 Q49 40 50 42" fill="none" stroke="#d0c5b7" stroke-width="0.4"/>
  <!-- Ears -->
  <ellipse cx="28" cy="36" rx="2.5" ry="4" fill="#d4c9bb"/>
  <ellipse cx="52" cy="36" rx="2.5" ry="4" fill="#d4c9bb"/>
</svg>