<svg xmlns="http://www.w3.org/2000/svg" viewBox="0 0 80 80" width="80" height="80">
  <circle cx="40" cy="40" r="40" fill="#3d3a37"/>
  <!-- Clothing / body -->
  <rect x="31" y="53" width="18" height="14" rx="2" fill="#e0d5c7"/>
  <path d="M20 80 Q40 66 60 80" fill="#333"/>
  <path d="M24 68 L33 56 L33 68 Z" fill="#333"/>
  <path d="M56 68 L47 56 L47 68 Z" fill="#333"/>
  <!-- Bow tie -->
  <path d="M37 57 L34 60 L37 63 Z" fill="#444"/>
  <path d="M43 57 L46 60 L43 63 Z" fill="#444"/>
  <rect x="37" y="59" width="6" height="3" rx="1" fill="#444"/>
  <!-- Face — elderly, distinguished -->
  <path d="M27 38 Q27 20 40 16 Q53 20 53 38 L52 49 Q48 56 40 56 Q32 56 28 49 Z" fill="#e0d5c7"/>
  <!-- Hair — receding, white/grey -->
  <path d="M28 34 Q26 18 40 14 Q54 18 52 34 Q51 22 40 18 Q29 22 28 34Z" fill="#b0aaa0"/>
  <!-- Wispy hair on top -->
  <path d="M32 20 Q36 16 40 15 Q44 16 48 20" fill="none" stroke="#c0bab0" stroke-width="1.5"/>
  <!-- Eyes — with spectacle suggestion -->
  <ellipse cx="34" cy="34" rx="3" ry="2" fill="white" opacity="0.9"/>
  <ellipse cx="46" cy="34" rx="3" ry="2" fill="white" opacity="0.9"/>
  <circle cx="34" cy="34" r="1.7" fill="#4a4a3a"/>
  <circle cx="46" cy="34" r="1.7" fill="#4a4a3a"/>
  <circle cx="34" cy="34" r="0.9" fill="#1a1715"/>
  <circle cx="46" cy="34" r="0.9" fill="#1a1715"/>
  <!-- Glasses frames -->
  <circle cx="34" cy="34" r="5" fill="none" stroke="#888" stroke-width="0.6"/>
  <circle cx="46" cy="34" r="5" fill="none" stroke="#888" stroke-width="0.6"/>
  <line x1="39" y1="34" x2="41" y2="34" stroke="#888" stroke-width="0.6"/>
  <!-- Eyebrows — bushy -->
  <path d="M28 29.5 Q34 28 38 30" fill="none" stroke="#8a7a6a" stroke-width="1.4" stroke-linecap="round"/>
  <path d="M42 30 Q46 28 52 29.5" fill="none" stroke="#8a7a6a" stroke-width="1.4" stroke-linecap="round"/>
  <!-- Nose -->
  <line x1="40" y1="37" x2="40" y2="43" stroke="#c4b9ac" stroke-width="0.9" stroke-linecap="round"/>
  <path d="M38 43 Q40 44.5 42 43" fill="none" stroke="#c4b9ac" stroke-width="0.6"/>
  <!-- Mustache — prominent -->
  <path d="M34 47 Q37 45 40 46 Q43 45 46 47" fill="#9a8a7a" stroke="none"/>
  <!-- Mouth -->
  <line x1="36" y1="49" x2="44" y2="49" stroke="#b09e8e" stroke-width="0.8" stroke-linecap="round"/>
  <!-- Ears -->
  <ellipse cx="26" cy="36" rx="2.5" ry="3.5" fill="#d4c9bb"/>
  <ellipse cx="54" cy="36" rx="2.5" ry="3.5" fill="#d4c9bb"/>
</svg>
