<svg xmlns="http://www.w3.org/2000/svg" viewBox="0 0 80 80" width="80" height="80">
  <circle cx="40" cy="40" r="40" fill="#3d3a37"/>
  <!-- Clothing / body -->
  <rect x="31" y="52" width="18" height="14" rx="2" fill="#e0d5c7"/>
  <path d="M20 80 Q40 66 60 80" fill="#4a4745"/>
  <path d="M24 68 L33 56 L33 68 Z" fill="#4a4745"/>
  <path d="M56 68 L47 56 L47 68 Z" fill="#4a4745"/>
  <!-- Collar -->
  <path d="M36 57 L38 64 L40 58 L42 64 L44 57" fill="none" stroke="#e8e2da" stroke-width="1"/>
  <!-- Face -->
  <path d="M27 40 Q27 20 40 17 Q53 20 53 40 L51 50 Q48 56 40 56 Q32 56 29 50 Z" fill="#e0d5c7"/>
  <path d="M29 48 Q32 55 40 56 Q48 55 51 48" fill="none" stroke="#d0c5b7" stroke-width="0.5"/>
  <!-- Hair (neat, dark) -->
  <path d="M27 34 Q26 16 40 13 Q54 16 53 34 Q52 20 40 17 Q28 20 27 34Z" fill="#4a3a2a"/>
  <!-- Bowler hat suggestion (dark arc above head) -->
  <path d="M22 16 Q22 4 40 2 Q58 4 58 16 Q56 6 40 5 Q24 6 22 16Z" fill="#2a2420"/>
  <!-- Hat brim -->
  <path d="M20 16 Q30 14 40 14 Q50 14 60 16 Q50 18 40 18 Q30 18 20 16Z" fill="#2a2420"/>
  <!-- Sideburns -->
  <path d="M27 28 Q26 24 28 20 L27 26Z" fill="#4a3a2a"/>
  <path d="M53 28 Q54 24 52 20 L53 26Z" fill="#4a3a2a"/>
  <!-- Pince-nez glasses -->
  <circle cx="34" cy="34" r="4.5" fill="none" stroke="#6a5a4a" stroke-width="0.8"/>
  <circle cx="46" cy="34" r="4.5" fill="none" stroke="#6a5a4a" stroke-width="0.8"/>
  <!-- Bridge (nose clip) -->
  <path d="M38.5 33 Q40 31.5 41.5 33" fill="none" stroke="#6a5a4a" stroke-width="0.8"/>
  <!-- Eyes (behind pince-nez) -->
  <ellipse cx="34" cy="34" rx="2.8" ry="2" fill="white" opacity="0.9"/>
  <ellipse cx="46" cy="34" rx="2.8" ry="2" fill="white" opacity="0.9"/>
  <circle cx="34" cy="34" r="1.6" fill="#5a5a5a"/>
  <circle cx="46" cy="34" r="1.6" fill="#5a5a5a"/>
  <circle cx="34" cy="34" r="0.9" fill="#1a1715"/>
  <circle cx="46" cy="34" r="0.9" fill="#1a1715"/>
  <circle cx="34.3" cy="33.5" r="0.4" fill="#8a8a8a"/>
  <circle cx="46.3" cy="33.5" r="0.4" fill="#8a8a8a"/>
  <!-- Eyebrows -->
  <path d="M28.5 28.5 Q34 27 38 29" fill="none" stroke="#4a3a2a" stroke-width="1.2" stroke-linecap="round"/>
  <path d="M42 29 Q46 27 51.5 28.5" fill="none" stroke="#4a3a2a" stroke-width="1.2" stroke-linecap="round"/>
  <!-- Nose -->
  <line x1="40" y1="36" x2="40" y2="43" stroke="#c4b9ac" stroke-width="0.9" stroke-linecap="round"/>
  <path d="M38 43 Q40 44.5 42 43" fill="none" stroke="#c4b9ac" stroke-width="0.6"/>
  <!-- Pointed beard -->
  <path d="M35 48 Q37 49 40 49 Q43 49 45 48 L43 52 Q40 56 37 52 Z" fill="#4a3a2a"/>
  <!-- Beard point -->
  <path d="M38 52 Q40 56 42 52" fill="#4a3a2a"/>
  <!-- Beard texture -->
  <path d="M39 49 L39 54" fill="none" stroke="#3a2a1a" stroke-width="0.4"/>
  <path d="M41 49 L41 54" fill="none" stroke="#3a2a1a" stroke-width="0.4"/>
  <!-- Mouth (hidden by beard area) -->
  <line x1="37" y1="47" x2="43" y2="47" stroke="#b09e8e" stroke-width="0.8" stroke-linecap="round"/>
  <!-- Ears -->
  <ellipse cx="26" cy="37" rx="2.5" ry="4" fill="#d4c9bb"/>
  <ellipse cx="54" cy="37" rx="2.5" ry="4" fill="#d4c9bb"/>
</svg>