<svg xmlns="http://www.w3.org/2000/svg" viewBox="0 0 80 80" width="80" height="80">
  <circle cx="40" cy="40" r="40" fill="#3d3a37"/>
  <!-- Clothing / body -->
  <rect x="31" y="52" width="18" height="14" rx="2" fill="#e0d5c7"/>
  <path d="M20 80 Q40 66 60 80" fill="#4a4745"/>
  <path d="M24 68 L33 56 L33 68 Z" fill="#4a4745"/>
  <path d="M56 68 L47 56 L47 68 Z" fill="#4a4745"/>
  <!-- Collar -->
  <path d="M36 57 L38 64 L40 58 L42 64 L44 57" fill="none" stroke="#e8e2da" stroke-width="1"/>
  <!-- Face -->
  <path d="M27 40 Q27 20 40 17 Q53 20 53 40 L51 50 Q48 56 40 56 Q32 56 29 50 Z" fill="#e0d5c7"/>
  <path d="M29 48 Q32 55 40 56 Q48 55 51 48" fill="none" stroke="#d0c5b7" stroke-width="0.5"/>
  <!-- Wavy brown hair -->
  <path d="M27 34 Q26 16 40 13 Q54 16 53 34 Q52 20 40 17 Q28 20 27 34Z" fill="#5a4a3a"/>
  <!-- Wavy texture -->
  <path d="M30 18 Q33 15 36 19 Q38 15 40 17 Q42 14 44 19 Q47 15 50 18" fill="none" stroke="#4a3a2a" stroke-width="0.7"/>
  <path d="M28 24 Q30 20 33 24 Q35 20 37 23" fill="none" stroke="#4a3a2a" stroke-width="0.6"/>
  <path d="M43 23 Q45 20 47 24 Q50 20 52 24" fill="none" stroke="#4a3a2a" stroke-width="0.6"/>
  <!-- Sideburns (prominent) -->
  <path d="M27 30 L25 44 Q24 40 26 34 Z" fill="#5a4a3a"/>
  <path d="M53 30 L55 44 Q56 40 54 34 Z" fill="#5a4a3a"/>
  <!-- Sideburn texture -->
  <path d="M25.5 36 Q26 38 25.5 40" fill="none" stroke="#4a3a2a" stroke-width="0.4"/>
  <path d="M54.5 36 Q54 38 54.5 40" fill="none" stroke="#4a3a2a" stroke-width="0.4"/>
  <!-- Eyes (intense) -->
  <ellipse cx="34" cy="34" rx="3.2" ry="2.2" fill="white" opacity="0.9"/>
  <ellipse cx="46" cy="34" rx="3.2" ry="2.2" fill="white" opacity="0.9"/>
  <circle cx="34" cy="34" r="1.8" fill="#3a4a6a"/>
  <circle cx="46" cy="34" r="1.8" fill="#3a4a6a"/>
  <circle cx="34" cy="34" r="1" fill="#1a1715"/>
  <circle cx="46" cy="34" r="1" fill="#1a1715"/>
  <circle cx="34.4" cy="33.5" r="0.5" fill="#6a8ab0"/>
  <circle cx="46.4" cy="33.5" r="0.5" fill="#6a8ab0"/>
  <!-- Intense eyebrows -->
  <path d="M28 29.5 Q34 27 38 30" fill="none" stroke="#4a3a2a" stroke-width="1.6" stroke-linecap="round"/>
  <path d="M42 30 Q46 27 52 29.5" fill="none" stroke="#4a3a2a" stroke-width="1.6" stroke-linecap="round"/>
  <!-- Nose -->
  <line x1="40" y1="36" x2="40" y2="43" stroke="#c4b9ac" stroke-width="0.9" stroke-linecap="round"/>
  <path d="M38 43 Q40 44.5 42 43" fill="none" stroke="#c4b9ac" stroke-width="0.6"/>
  <!-- Mouth -->
  <line x1="35" y1="48.5" x2="45" y2="48.5" stroke="#b09e8e" stroke-width="1.2" stroke-linecap="round"/>
  <!-- Ears -->
  <ellipse cx="26" cy="37" rx="2.5" ry="4" fill="#d4c9bb"/>
  <ellipse cx="54" cy="37" rx="2.5" ry="4" fill="#d4c9bb"/>
</svg>