<svg xmlns="http://www.w3.org/2000/svg" viewBox="0 0 80 80" width="80" height="80">
  <circle cx="40" cy="40" r="40" fill="#3d3a37"/>
  <!-- Clothing / body -->
  <rect x="31" y="52" width="18" height="14" rx="2" fill="#e0d5c7"/>
  <path d="M20 80 Q40 66 60 80" fill="#4a4745"/>
  <path d="M24 68 L33 56 L33 68 Z" fill="#4a4745"/>
  <path d="M56 68 L47 56 L47 68 Z" fill="#4a4745"/>
  <!-- Collar -->
  <path d="M36 57 L38 64 L40 58 L42 64 L44 57" fill="none" stroke="#e8e2da" stroke-width="1"/>
  <!-- Face (round) -->
  <path d="M26 40 Q26 20 40 17 Q54 20 54 40 L52 50 Q48 56 40 56 Q32 56 28 50 Z" fill="#e0d5c7"/>
  <path d="M28 48 Q32 55 40 56 Q48 55 52 48" fill="none" stroke="#d0c5b7" stroke-width="0.5"/>
  <!-- Curly dark hair -->
  <path d="M26 34 Q25 16 40 13 Q55 16 54 34 Q53 18 40 15 Q27 18 26 34Z" fill="#4a3a2a"/>
  <!-- Curly texture -->
  <circle cx="30" cy="18" r="3" fill="#4a3a2a"/>
  <circle cx="36" cy="14" r="3" fill="#4a3a2a"/>
  <circle cx="44" cy="14" r="3" fill="#4a3a2a"/>
  <circle cx="50" cy="18" r="3" fill="#4a3a2a"/>
  <circle cx="27" cy="24" r="3" fill="#4a3a2a"/>
  <circle cx="53" cy="24" r="3" fill="#4a3a2a"/>
  <circle cx="26" cy="30" r="2.5" fill="#4a3a2a"/>
  <circle cx="54" cy="30" r="2.5" fill="#4a3a2a"/>
  <!-- Sideburns -->
  <path d="M26 30 L25 40 Q24 36 26 30Z" fill="#4a3a2a"/>
  <path d="M54 30 L55 40 Q56 36 54 30Z" fill="#4a3a2a"/>
  <!-- Round spectacles -->
  <circle cx="34" cy="34" r="5" fill="none" stroke="#6a5a4a" stroke-width="0.8"/>
  <circle cx="46" cy="34" r="5" fill="none" stroke="#6a5a4a" stroke-width="0.8"/>
  <!-- Bridge -->
  <line x1="39" y1="34" x2="41" y2="34" stroke="#6a5a4a" stroke-width="0.8"/>
  <!-- Temple arms -->
  <line x1="29" y1="33" x2="26" y2="32" stroke="#6a5a4a" stroke-width="0.7"/>
  <line x1="51" y1="33" x2="54" y2="32" stroke="#6a5a4a" stroke-width="0.7"/>
  <!-- Eyes (behind glasses) -->
  <ellipse cx="34" cy="34" rx="2.8" ry="2" fill="white" opacity="0.9"/>
  <ellipse cx="46" cy="34" rx="2.8" ry="2" fill="white" opacity="0.9"/>
  <circle cx="34" cy="34" r="1.6" fill="#5a3a1a"/>
  <circle cx="46" cy="34" r="1.6" fill="#5a3a1a"/>
  <circle cx="34" cy="34" r="0.9" fill="#1a1715"/>
  <circle cx="46" cy="34" r="0.9" fill="#1a1715"/>
  <circle cx="34.3" cy="33.5" r="0.4" fill="#8a6a3a"/>
  <circle cx="46.3" cy="33.5" r="0.4" fill="#8a6a3a"/>
  <!-- Eyebrows -->
  <path d="M29 29 Q34 27.5 38 29.5" fill="none" stroke="#4a3a2a" stroke-width="1.2" stroke-linecap="round"/>
  <path d="M42 29.5 Q46 27.5 51 29" fill="none" stroke="#4a3a2a" stroke-width="1.2" stroke-linecap="round"/>
  <!-- Nose -->
  <line x1="40" y1="37" x2="40" y2="43" stroke="#c4b9ac" stroke-width="0.9" stroke-linecap="round"/>
  <path d="M38 43 Q40 44.5 42 43" fill="none" stroke="#c4b9ac" stroke-width="0.6"/>
  <!-- Mouth -->
  <line x1="35" y1="48.5" x2="45" y2="48.5" stroke="#b09e8e" stroke-width="1.2" stroke-linecap="round"/>
  <!-- Ears -->
  <ellipse cx="25" cy="37" rx="2.5" ry="4" fill="#d4c9bb"/>
  <ellipse cx="55" cy="37" rx="2.5" ry="4" fill="#d4c9bb"/>
</svg>