<svg xmlns="http://www.w3.org/2000/svg" viewBox="0 0 80 80" width="80" height="80">
  <circle cx="40" cy="40" r="40" fill="#3d3a37"/>
  <!-- Clothing / body -->
  <rect x="31" y="52" width="18" height="14" rx="2" fill="#e0d5c7"/>
  <path d="M20 80 Q40 66 60 80" fill="#4a4745"/>
  <path d="M24 68 L33 56 L33 68 Z" fill="#4a4745"/>
  <path d="M56 68 L47 56 L47 68 Z" fill="#4a4745"/>
  <!-- Collar -->
  <path d="M36 57 L38 64 L40 58 L42 64 L44 57" fill="none" stroke="#e8e2da" stroke-width="1"/>
  <!-- Face -->
  <path d="M27 40 Q27 20 40 17 Q53 20 53 40 L51 50 Q48 56 40 56 Q32 56 29 50 Z" fill="#e0d5c7"/>
  <path d="M29 48 Q32 55 40 56 Q48 55 51 48" fill="none" stroke="#d0c5b7" stroke-width="0.5"/>
  <!-- Trimmed beard -->
  <path d="M29 44 Q29 54 40 57 Q51 54 51 44 L50 48 Q47 54 40 55 Q33 54 30 48 Z" fill="#4a3a2a"/>
  <!-- Beard texture -->
  <path d="M33 48 Q34 51 33 54" fill="none" stroke="#3a2a1a" stroke-width="0.4"/>
  <path d="M40 48 Q40 52 40 56" fill="none" stroke="#3a2a1a" stroke-width="0.4"/>
  <path d="M47 48 Q46 51 47 54" fill="none" stroke="#3a2a1a" stroke-width="0.4"/>
  <!-- Neat dark hair -->
  <path d="M27 34 Q26 16 40 13 Q54 16 53 34 Q52 20 40 17 Q28 20 27 34Z" fill="#3a2a1a"/>
  <!-- Hair parted neatly -->
  <path d="M38 14 Q40 13 42 14" fill="none" stroke="#2a1a0a" stroke-width="0.5"/>
  <!-- Sideburns -->
  <path d="M27 30 L26 40 Q25 36 27 32 Z" fill="#3a2a1a"/>
  <path d="M53 30 L54 40 Q55 36 53 32 Z" fill="#3a2a1a"/>
  <!-- Eyes (dignified) -->
  <ellipse cx="34" cy="34" rx="3.2" ry="2.2" fill="white" opacity="0.9"/>
  <ellipse cx="46" cy="34" rx="3.2" ry="2.2" fill="white" opacity="0.9"/>
  <circle cx="34" cy="34" r="1.8" fill="#5a5a5a"/>
  <circle cx="46" cy="34" r="1.8" fill="#5a5a5a"/>
  <circle cx="34" cy="34" r="1" fill="#1a1715"/>
  <circle cx="46" cy="34" r="1" fill="#1a1715"/>
  <circle cx="34.4" cy="33.5" r="0.5" fill="#8a8a8a"/>
  <circle cx="46.4" cy="33.5" r="0.5" fill="#8a8a8a"/>
  <!-- Eyebrows -->
  <path d="M28.5 30 Q34 28.5 38 30.5" fill="none" stroke="#3a2a1a" stroke-width="1.4" stroke-linecap="round"/>
  <path d="M42 30.5 Q46 28.5 51.5 30" fill="none" stroke="#3a2a1a" stroke-width="1.4" stroke-linecap="round"/>
  <!-- Nose -->
  <line x1="40" y1="36" x2="40" y2="43" stroke="#c4b9ac" stroke-width="0.9" stroke-linecap="round"/>
  <path d="M38 43 Q40 44.5 42 43" fill="none" stroke="#c4b9ac" stroke-width="0.6"/>
  <!-- Mouth (within beard) -->
  <line x1="36" y1="47.5" x2="44" y2="47.5" stroke="#3a2a1a" stroke-width="0.8" stroke-linecap="round"/>
  <!-- Ears -->
  <ellipse cx="26" cy="37" rx="2.5" ry="4" fill="#d4c9bb"/>
  <ellipse cx="54" cy="37" rx="2.5" ry="4" fill="#d4c9bb"/>
</svg>