<svg xmlns="http://www.w3.org/2000/svg" viewBox="0 0 80 80" width="80" height="80">
  <circle cx="40" cy="40" r="40" fill="#3d3a37"/>
  <!-- Body / clothing -->
  <rect x="31" y="52" width="18" height="14" rx="2" fill="#e0d5c7"/>
  <path d="M20 80 Q40 66 60 80" fill="#3a4a5a"/>
  <path d="M24 68 L33 56 L33 68 Z" fill="#3a4a5a"/>
  <path d="M56 68 L47 56 L47 68 Z" fill="#3a4a5a"/>
  <!-- Cravat -->
  <path d="M37 57 L40 64 L43 57" fill="#e8e2da" stroke="#d0c5b7" stroke-width="0.5"/>
  <!-- Face -->
  <path d="M27 40 Q27 20 40 17 Q53 20 53 40 L51 50 Q47 56 40 56 Q33 56 29 50 Z" fill="#e0d5c7"/>
  <!-- Baroque wig — high and full -->
  <path d="M25 36 Q22 12 40 8 Q58 12 55 36 Q54 16 40 12 Q26 16 25 36Z" fill="#bbb5ab"/>
  <!-- Wig curls left -->
  <path d="M23 32 Q19 34 20 38 Q21 42 23 40 Q21 38 23 36 Z" fill="#bbb5ab"/>
  <path d="M21 38 Q17 40 18 44 Q19 48 21 46 Q19 44 21 42 Z" fill="#bbb5ab"/>
  <!-- Wig curls right -->
  <path d="M57 32 Q61 34 60 38 Q59 42 57 40 Q59 38 57 36 Z" fill="#bbb5ab"/>
  <path d="M59 38 Q63 40 62 44 Q61 48 59 46 Q61 44 59 42 Z" fill="#bbb5ab"/>
  <!-- Eyes -->
  <ellipse cx="34" cy="34" rx="3" ry="2" fill="white" opacity="0.9"/>
  <ellipse cx="46" cy="34" rx="3" ry="2" fill="white" opacity="0.9"/>
  <circle cx="34" cy="34" r="1.7" fill="#4a5a3a"/>
  <circle cx="46" cy="34" r="1.7" fill="#4a5a3a"/>
  <circle cx="34" cy="34" r="0.9" fill="#1a1715"/>
  <circle cx="46" cy="34" r="0.9" fill="#1a1715"/>
  <!-- Eyebrows -->
  <path d="M29 30 Q34 28.5 38 30.5" fill="none" stroke="#6a5a4a" stroke-width="1.2" stroke-linecap="round"/>
  <path d="M42 30.5 Q46 28.5 51 30" fill="none" stroke="#6a5a4a" stroke-width="1.2" stroke-linecap="round"/>
  <!-- Nose -->
  <line x1="40" y1="36" x2="40" y2="43" stroke="#c4b9ac" stroke-width="0.9" stroke-linecap="round"/>
  <path d="M38 43 Q40 44.5 42 43" fill="none" stroke="#c4b9ac" stroke-width="0.6"/>
  <!-- Slight smile -->
  <path d="M35 48 Q40 50.5 45 48" fill="none" stroke="#b09e8e" stroke-width="1.2" stroke-linecap="round"/>
  <!-- Ears -->
  <ellipse cx="25" cy="37" rx="2.5" ry="4" fill="#d4c9bb"/>
  <ellipse cx="55" cy="37" rx="2.5" ry="4" fill="#d4c9bb"/>
</svg>
