<svg xmlns="http://www.w3.org/2000/svg" viewBox="0 0 80 80" width="80" height="80">
  <!-- Background -->
  <circle cx="40" cy="40" r="40" fill="#3d3a37"/>
  <!-- Neck -->
  <rect x="33" y="52" width="14" height="14" rx="2" fill="#e0d5c7"/>
  <!-- High collar - elegant/dapper -->
  <path d="M20 80 Q40 64 60 80" fill="#f0ebe4"/>
  <rect x="33" y="58" width="14" height="8" fill="#f0ebe4"/>
  <line x1="33" y1="58" x2="33" y2="66" stroke="#d0cbc4" stroke-width="0.5"/>
  <line x1="47" y1="58" x2="47" y2="66" stroke="#d0cbc4" stroke-width="0.5"/>
  <!-- Collar points -->
  <path d="M28 66 L33 60 L33 66 Z" fill="#f0ebe4" stroke="#d0cbc4" stroke-width="0.3"/>
  <path d="M52 66 L47 60 L47 66 Z" fill="#f0ebe4" stroke="#d0cbc4" stroke-width="0.3"/>
  <!-- Dark jacket -->
  <path d="M16 80 L28 66 L33 66 L33 80 Z" fill="#2a2725"/>
  <path d="M64 80 L52 66 L47 66 L47 80 Z" fill="#2a2725"/>
  <!-- Face - handsome, well-proportioned -->
  <path d="M27 42 Q27 20 40 17 Q53 20 53 42 Q51 54 40 56 Q29 54 27 42Z" fill="#e0d5c7"/>
  <!-- Slicked-back dark hair -->
  <path d="M27 34 Q26 16 40 13 Q54 16 53 34 Q52 22 40 18 Q28 22 27 34Z" fill="#1a1715"/>
  <path d="M25 30 Q26 20 28 26 Z" fill="#1a1715"/>
  <path d="M55 30 Q54 20 52 26 Z" fill="#1a1715"/>
  <!-- Side hair neat -->
  <path d="M26 30 L26 36 Q26 32 27 30Z" fill="#1a1715"/>
  <path d="M54 30 L54 36 Q54 32 53 30Z" fill="#1a1715"/>
  <!-- Eyes - refined -->
  <ellipse cx="34" cy="34" rx="3.2" ry="2.4" fill="white" opacity="0.9"/>
  <ellipse cx="46" cy="34" rx="3.2" ry="2.4" fill="white" opacity="0.9"/>
  <circle cx="34.2" cy="34" r="1.8" fill="#3a3020"/>
  <circle cx="46.2" cy="34" r="1.8" fill="#3a3020"/>
  <circle cx="34.5" cy="33.5" r="0.6" fill="#81b64c"/>
  <circle cx="46.5" cy="33.5" r="0.6" fill="#81b64c"/>
  <!-- Elegant eyebrows -->
  <path d="M29 31 Q34 29.5 38 31" fill="none" stroke="#1a1715" stroke-width="1" stroke-linecap="round"/>
  <path d="M42 31 Q46 29.5 51 31" fill="none" stroke="#1a1715" stroke-width="1" stroke-linecap="round"/>
  <!-- Nose - straight, refined -->
  <line x1="40" y1="36" x2="40" y2="43" stroke="#c4b9ac" stroke-width="0.8" stroke-linecap="round"/>
  <path d="M38 43 Q40 44.5 42 43" fill="none" stroke="#c4b9ac" stroke-width="0.6"/>
  <!-- Slight confident smile -->
  <path d="M35 48 Q40 51 45 48" fill="none" stroke="#b09e8e" stroke-width="1" stroke-linecap="round"/>
  <!-- Ears -->
  <ellipse cx="26" cy="37" rx="2.5" ry="4" fill="#d4c9bb"/>
  <ellipse cx="54" cy="37" rx="2.5" ry="4" fill="#d4c9bb"/>
</svg>