<svg xmlns="http://www.w3.org/2000/svg" viewBox="0 0 80 80" width="80" height="80">
  <!-- Background -->
  <circle cx="40" cy="40" r="40" fill="#3d3a37"/>
  <!-- Neck - thinner -->
  <rect x="34" y="52" width="12" height="14" rx="2" fill="#e0d5c7"/>
  <!-- Suit -->
  <path d="M20 80 Q40 64 60 80" fill="#3a3735"/>
  <path d="M24 68 L35 56 L35 68 Z" fill="#3a3735"/>
  <path d="M56 68 L45 56 L45 68 Z" fill="#3a3735"/>
  <!-- Shirt collar -->
  <path d="M35 58 L38 64 L40 59 L42 64 L45 58" fill="none" stroke="#d0cbc4" stroke-width="1"/>
  <!-- Face - thin, sharp features -->
  <path d="M29 40 Q29 22 40 18 Q51 22 51 40 Q49 54 40 56 Q31 54 29 40Z" fill="#e0d5c7"/>
  <!-- Swept-over hair -->
  <path d="M28 34 Q27 14 40 12 Q54 14 53 28 L52 30 Q50 16 40 15 Q30 16 28 28Z" fill="#7a7068"/>
  <!-- Hair swept to one side -->
  <path d="M28 28 Q27 22 30 18 L28 24Z" fill="#7a7068"/>
  <path d="M53 28 Q54 22 52 16 L53 24Z" fill="#7a7068"/>
  <path d="M27 30 L27 36 Q26 32 27 30Z" fill="#7a7068"/>
  <path d="M53 28 L53 34 Q54 30 53 28Z" fill="#7a7068"/>
  <!-- Hair swept across forehead -->
  <path d="M30 22 Q36 18 48 20 Q42 17 32 19Z" fill="#7a7068"/>
  <!-- Eyes - sharp, calculating -->
  <ellipse cx="34" cy="34" rx="3" ry="2" fill="white" opacity="0.9"/>
  <ellipse cx="46" cy="34" rx="3" ry="2" fill="white" opacity="0.9"/>
  <circle cx="34.2" cy="34" r="1.5" fill="#1a1715"/>
  <circle cx="46.2" cy="34" r="1.5" fill="#1a1715"/>
  <circle cx="34.5" cy="33.6" r="0.5" fill="#81b64c"/>
  <circle cx="46.5" cy="33.6" r="0.5" fill="#81b64c"/>
  <!-- Sharp eyebrows -->
  <line x1="29.5" y1="31" x2="37.5" y2="31" stroke="#6a6058" stroke-width="1" stroke-linecap="round"/>
  <line x1="42.5" y1="31" x2="50.5" y2="31" stroke="#6a6058" stroke-width="1" stroke-linecap="round"/>
  <!-- Nose - sharp -->
  <line x1="40" y1="36" x2="39.5" y2="43" stroke="#c4b9ac" stroke-width="0.8" stroke-linecap="round"/>
  <!-- Composed, neutral expression -->
  <line x1="36" y1="48" x2="44" y2="48" stroke="#b09e8e" stroke-width="1" stroke-linecap="round"/>
  <!-- Ears -->
  <ellipse cx="28" cy="37" rx="2" ry="3.5" fill="#d4c9bb"/>
  <ellipse cx="52" cy="37" rx="2" ry="3.5" fill="#d4c9bb"/>
</svg>