<svg xmlns="http://www.w3.org/2000/svg" viewBox="0 0 80 80" width="80" height="80">
  <!-- Background -->
  <circle cx="40" cy="40" r="40" fill="#3d3a37"/>
  <!-- Neck - sturdy/wider -->
  <rect x="30" y="52" width="20" height="14" rx="2" fill="#e0d5c7"/>
  <!-- Collar/suit -->
  <path d="M20 80 Q40 64 60 80" fill="#4a4745"/>
  <path d="M22 68 L33 56 L33 68 Z" fill="#4a4745"/>
  <path d="M58 68 L47 56 L47 68 Z" fill="#4a4745"/>
  <!-- Tie -->
  <polygon points="38,58 42,58 41,68 39,68" fill="#81b64c" opacity="0.7"/>
  <!-- Face - rounder -->
  <ellipse cx="40" cy="38" rx="16" ry="18" fill="#e0d5c7"/>
  <!-- Receding hairline with side hair -->
  <path d="M24 32 Q24 16 40 14 Q56 16 56 32 L54 32 Q52 20 40 18 Q28 20 26 32 Z" fill="#2a2320"/>
  <path d="M24 28 L24 40 Q24 34 26 30 Z" fill="#2a2320"/>
  <path d="M56 28 L56 40 Q56 34 54 30 Z" fill="#2a2320"/>
  <!-- High forehead visible -->
  <!-- Prominent nose -->
  <path d="M40 34 L38 44 Q40 46 42 44 Z" fill="#d4c9bb"/>
  <!-- Eyes -->
  <ellipse cx="34" cy="34" rx="3" ry="2.5" fill="white" opacity="0.9"/>
  <ellipse cx="46" cy="34" rx="3" ry="2.5" fill="white" opacity="0.9"/>
  <circle cx="34" cy="34" r="1.8" fill="#1a1715"/>
  <circle cx="46" cy="34" r="1.8" fill="#1a1715"/>
  <circle cx="34.3" cy="33.6" r="0.6" fill="#81b64c"/>
  <circle cx="46.3" cy="33.6" r="0.6" fill="#81b64c"/>
  <!-- Eyebrows - thick -->
  <path d="M29 30.5 Q34 29 38 30.5" fill="none" stroke="#2a2320" stroke-width="1.5" stroke-linecap="round"/>
  <path d="M42 30.5 Q46 29 51 30.5" fill="none" stroke="#2a2320" stroke-width="1.5" stroke-linecap="round"/>
  <!-- Mouth - neutral/serious -->
  <line x1="36" y1="49" x2="44" y2="49" stroke="#b09e8e" stroke-width="1.2" stroke-linecap="round"/>
  <!-- Ears - larger -->
  <ellipse cx="24" cy="38" rx="3" ry="5" fill="#d4c9bb"/>
  <ellipse cx="56" cy="38" rx="3" ry="5" fill="#d4c9bb"/>
</svg>