<svg xmlns="http://www.w3.org/2000/svg" viewBox="0 0 80 80" width="80" height="80">
  <!-- Background -->
  <circle cx="40" cy="40" r="40" fill="#3d3a37"/>
  <!-- Neck -->
  <rect x="33" y="52" width="14" height="14" rx="2" fill="#e0d5c7"/>
  <!-- Suit jacket - Soviet era formal -->
  <path d="M20 80 Q40 64 60 80" fill="#3a3735"/>
  <path d="M24 68 L34 56 L34 68 Z" fill="#3a3735"/>
  <path d="M56 68 L46 56 L46 68 Z" fill="#3a3735"/>
  <!-- Shirt collar -->
  <path d="M34 57 L37 63 L40 58 L43 63 L46 57" fill="none" stroke="#d0cbc4" stroke-width="1"/>
  <!-- Face - round, gentle, pleasant features -->
  <path d="M27 40 Q27 20 40 17 Q53 20 53 40 Q51 54 40 57 Q29 54 27 40Z" fill="#e0d5c7"/>
  <!-- Receding hair, swept back, light brown -->
  <path d="M28 34 Q27 18 40 14 Q53 18 52 34 Q51 22 40 18 Q29 22 28 34Z" fill="#6a5a48"/>
  <path d="M27 30 Q26 22 29 18 L27 24Z" fill="#6a5a48"/>
  <path d="M53 30 Q54 22 51 18 L53 24Z" fill="#6a5a48"/>
  <!-- Receding hairline -->
  <path d="M31 20 Q36 17 44 17 Q49 19 51 22 Q47 17 40 16 Q33 17 31 20Z" fill="#6a5a48"/>
  <!-- Forehead showing -->
  <ellipse cx="40" cy="20" rx="7" ry="3" fill="#ddd0c2" opacity="0.4"/>
  <!-- Side hair -->
  <path d="M27 30 L27 36 Q26 32 27 30Z" fill="#6a5a48"/>
  <path d="M53 30 L53 36 Q54 32 53 30Z" fill="#6a5a48"/>
  <!-- Eyes - kind, warm, gentle -->
  <ellipse cx="34" cy="34" rx="3" ry="2.2" fill="white" opacity="0.9"/>
  <ellipse cx="46" cy="34" rx="3" ry="2.2" fill="white" opacity="0.9"/>
  <circle cx="34" cy="34" r="1.6" fill="#4a5a6a"/>
  <circle cx="46" cy="34" r="1.6" fill="#4a5a6a"/>
  <circle cx="34" cy="34" r="0.8" fill="#1a1715"/>
  <circle cx="46" cy="34" r="0.8" fill="#1a1715"/>
  <circle cx="34.3" cy="33.5" r="0.5" fill="#81b64c"/>
  <circle cx="46.3" cy="33.5" r="0.5" fill="#81b64c"/>
  <!-- Gentle eyebrows -->
  <path d="M29.5 31 Q34 29.5 37.5 31.5" fill="none" stroke="#5a4a38" stroke-width="1" stroke-linecap="round"/>
  <path d="M42.5 31.5 Q46 29.5 50.5 31" fill="none" stroke="#5a4a38" stroke-width="1" stroke-linecap="round"/>
  <!-- Nose -->
  <line x1="40" y1="36" x2="40" y2="43" stroke="#c4b9ac" stroke-width="0.9" stroke-linecap="round"/>
  <path d="M38 43 Q40 44.5 42 43" fill="none" stroke="#c4b9ac" stroke-width="0.6"/>
  <!-- Gentle, serene smile -->
  <path d="M35 48 Q40 50.5 45 48" fill="none" stroke="#b09e8e" stroke-width="1" stroke-linecap="round"/>
  <path d="M36.5 48.5 Q40 49.5 43.5 48.5" fill="#c4a088" opacity="0.15"/>
  <!-- Round cheeks hint -->
  <circle cx="30" cy="42" r="3" fill="#d4b8a8" opacity="0.15"/>
  <circle cx="50" cy="42" r="3" fill="#d4b8a8" opacity="0.15"/>
  <!-- Ears -->
  <ellipse cx="26" cy="37" rx="2.5" ry="4" fill="#d4c9bb"/>
  <ellipse cx="54" cy="37" rx="2.5" ry="4" fill="#d4c9bb"/>
</svg>